<svg xmlns="http://www.w3.org/2000/svg" width="594.72" height="94.56" viewBox="0 0 594.72 94.56"><defs><style>.a{fill:#fdfefe;}.b{fill:#1d2c45;}.c{fill:#3aa0c9;}</style></defs><path class="a" d="M410,0H594.72V94.56H0V0H407.35a3.51,3.51,0,0,1-.61.24,10.23,10.23,0,0,0-6.05,3.11A11.59,11.59,0,0,0,399,16c1.91,3.93,5.91,6,10.84,5.61a10.2,10.2,0,0,0,9.44-9.21c.65-5.46-2.12-10.11-7-11.69C411.56.43,410.77.23,410,0ZM321.55,10.06V92.34a21.13,21.13,0,0,0,21-23.15h1.31c4.91,0,9.84.19,14.75-.06a56,56,0,0,0,11.11-1.48c9.19-2.36,15.85-7.82,19.06-17a36.08,36.08,0,0,0,1.55-16.75c-1.09-8.55-5.14-15.23-12.84-19.45a38.26,38.26,0,0,0-18.33-4.36c-11.95-.11-23.9,0-35.85-.06Zm140,47.82c.14,1.34.27,3.94.74,6.48,2.16,11.75,8.5,20.54,19.38,25.62,11.7,5.45,23.87,5.73,36.06,1.8a33.5,33.5,0,0,0,20.94-18.39,40.2,40.2,0,0,0,3-23.25C539.85,37.79,533.4,28.63,522,23.28c-10.37-4.88-21.28-5.29-32.32-2.77a35.4,35.4,0,0,0-20.25,12.33C463.86,39.78,461.71,47.87,461.59,57.88ZM556.51,4.72v17.6H547.8V35.7h8.74v1.4q0,17.17,0,34.35a32.67,32.67,0,0,0,.29,4.64c1,6.57,4.27,11.63,10.54,14.17,9.11,3.68,18,2.26,26.59-1.93.73-.36.54-.81.37-1.38C593.21,83,592.1,79.07,591,75.13c-.13-.44-.27-.86-.36-1.15-2.26.64-4.38,1.38-6.56,1.81-4,.76-6.63-1.11-7.07-4.81a15.16,15.16,0,0,1-.13-1.9V35.64h16.48V22.2H576.83V4.72Zm-421,26.49h-9.11v7.41c-.63-.57-1.08-1-1.55-1.41s-1-.84-1.48-1.21c-8.92-6.5-18.82-7.79-29.29-5.14A27.83,27.83,0,0,0,74.17,48.44,34,34,0,0,0,72.47,67a29.11,29.11,0,0,0,10.79,18.6A30.71,30.71,0,0,0,100.14,92c8,.65,15.43-.86,22.09-5.46,1.43-1,2.73-2.17,4.22-3.38v8.56h9.07Zm295.79-26V92.44c1.09-.08,2.08-.13,3.07-.23a19.3,19.3,0,0,0,17.24-18.89q0-33.43,0-66.88V5.18Zm-358,16.15c-.52-.48-.95-.89-1.39-1.28C57.84,7.69,36.37,5.65,20.37,15.54,5.5,24.74-1.25,38.3.54,55.7c1.07,10.45,5.9,19.19,13.85,26.11a42.94,42.94,0,0,0,50.23,4.37,44,44,0,0,0,8.84-6.63l-5.71-6.37-.29.1c-.46.39-.9.79-1.37,1.16-11,8.76-23.22,11.11-36.37,5.7a31.8,31.8,0,0,1-19.2-36.32c3.11-14.62,16.2-25.18,31.69-25.61A33.78,33.78,0,0,1,64.82,26c1,.78,1.9,1.65,2.88,2.51ZM308.47,64.45c.29-7-.38-13.63-3.27-19.9A24.1,24.1,0,0,0,289.77,31,34.78,34.78,0,0,0,274.7,30c-10,1.4-17.71,6.37-22.4,15.46C248.66,52.49,248,60,249.39,67.78a28.63,28.63,0,0,0,10.7,18.12A29.87,29.87,0,0,0,276.21,92,35.38,35.38,0,0,0,298,87.34a25.76,25.76,0,0,0,6.62-5.56c-1.7-1.82-3.36-3.59-5-5.39-.17.13-.3.22-.41.32-7.22,6.84-15.81,8.78-25.28,6.55C264.15,81,258.81,72.64,258,64.45ZM188,29.94v1.52c0,9.26,0,18.51,0,27.77a39.53,39.53,0,0,1-.4,6c-.84,5.41-3,10.2-7.46,13.59C174.4,83.09,168,84,161.24,82a13.71,13.71,0,0,1-9.85-10,26.27,26.27,0,0,1-.92-6.6c-.09-11.33,0-22.66,0-34V30h-9.19v1.5c0,12.13,0,24.26,0,36.39a35,35,0,0,0,.53,6.3c1.68,8.86,6.65,14.88,15.59,17.16a30.11,30.11,0,0,0,17.35-.84A21.32,21.32,0,0,0,187,79.89l.76-1.4.21.07V91.71h9.1V29.94ZM398.4,92.33c.28,0,.44,0,.59,0a20.24,20.24,0,0,0,19.67-20.33q0-20.94,0-41.87c0-.39,0-.77-.05-1.14H398.4ZM244.91,35.21c-8-5.8-22.15-7.4-31.22-3.68-8.15,3.34-11.29,10.36-9.8,18.45A13.57,13.57,0,0,0,212,60.05,125,125,0,0,0,224,64.61c3.54,1.24,7.22,2.12,10.33,4.35a7.68,7.68,0,0,1,3,9.18c-1.11,3.08-3.61,4.64-6.58,5.39-7.46,1.88-14.51.46-21.17-3.1-2-1.06-3.79-2.46-5.76-3.76-1.05,2.06-2.16,4.17-3.18,6.32a1.22,1.22,0,0,0,.38,1.06,33.61,33.61,0,0,0,3.53,2.66,37,37,0,0,0,24.36,5.17,25.72,25.72,0,0,0,11.18-4c8.58-5.58,9.2-19.41,1.47-25.25a32.61,32.61,0,0,0-7.6-4.2c-4.27-1.67-8.74-2.8-13-4.39a25.05,25.05,0,0,1-6.09-3.23,6.8,6.8,0,0,1-1.19-9.44c2.05-2.72,5.07-3.5,8.23-3.8A31.18,31.18,0,0,1,240.45,42c.3.17.6.32,1,.5Z"/><path class="b" d="M410,0c.78.23,1.57.43,2.34.68,4.86,1.58,7.63,6.23,7,11.69a10.2,10.2,0,0,1-9.44,9.21C404.94,22,400.94,19.9,399,16a11.59,11.59,0,0,1,1.66-12.62A10.23,10.23,0,0,1,406.74.24a3.51,3.51,0,0,0,.61-.24Z"/><path class="b" d="M321.55,10.06h1.72c12,0,23.9-.05,35.85.06a38.26,38.26,0,0,1,18.33,4.36c7.7,4.22,11.75,10.9,12.84,19.45a36.08,36.08,0,0,1-1.55,16.75c-3.21,9.15-9.87,14.61-19.06,17a56,56,0,0,1-11.11,1.48c-4.91.25-9.84.06-14.75.06h-1.31a21.13,21.13,0,0,1-21,23.15Zm20.93,42.65c2.46,0,4.81,0,7.16,0,3.42-.06,6.87,0,10.28-.31a11.17,11.17,0,0,0,10.32-8.71,19.21,19.21,0,0,0,.49-4.85c-.09-5.67-2.8-9.67-7.78-11.22a24.31,24.31,0,0,0-6.35-1c-4.34-.15-8.7,0-13.06,0-.34,0-.69,0-1.06.05Z"/><path class="b" d="M461.59,57.88c.12-10,2.27-18.1,7.88-25a35.4,35.4,0,0,1,20.25-12.33c11-2.52,21.95-2.11,32.32,2.77,11.36,5.35,17.81,14.51,19.67,26.86a40.2,40.2,0,0,1-3,23.25,33.5,33.5,0,0,1-20.94,18.39c-12.19,3.93-24.36,3.65-36.06-1.8-10.88-5.08-17.22-13.87-19.38-25.62C461.86,61.82,461.73,59.22,461.59,57.88ZM481.53,57a28.85,28.85,0,0,0,2.63,12.3c3.31,6.74,8.7,10.62,16.23,11.14C508.32,81,514.8,78,518.68,71c5.06-9.15,5.13-18.73.15-27.9-7-12.94-25.66-13.2-33.47-.71C482.59,46.81,481.63,51.73,481.53,57Z"/><path class="b" d="M556.51,4.72h20.32V22.2h16.51V35.64H576.86V69.08A15.16,15.16,0,0,0,577,71c.44,3.7,3.09,5.57,7.07,4.81,2.18-.43,4.3-1.17,6.56-1.81.09.29.23.71.36,1.15,1.12,3.94,2.23,7.89,3.36,11.82.17.57.36,1-.37,1.38-8.61,4.19-17.48,5.61-26.59,1.93-6.27-2.54-9.54-7.6-10.54-14.17a32.67,32.67,0,0,1-.29-4.64q0-17.18,0-34.35V35.7H547.8V22.32h8.71Z"/><path class="c" d="M135.52,31.21V91.74h-9.07V83.18c-1.49,1.21-2.79,2.39-4.22,3.38-6.66,4.6-14.11,6.11-22.09,5.46a30.71,30.71,0,0,1-16.88-6.4A29.11,29.11,0,0,1,72.47,67a34,34,0,0,1,1.7-18.58A27.83,27.83,0,0,1,94.09,30.86c10.47-2.65,20.37-1.36,29.29,5.14.51.37,1,.79,1.48,1.21s.92.84,1.55,1.41V31.21ZM81.3,60.77c0,.84-.07,1.68,0,2.51.61,6.71,3.25,12.37,8.77,16.45a21.9,21.9,0,0,0,15,4.06c7.5-.53,13.43-3.83,17.28-10.4a24.83,24.83,0,0,0,2.91-16.5,21.66,21.66,0,0,0-6-12.5,20.84,20.84,0,0,0-13.27-6.21c-6.65-.63-12.71.85-17.75,5.45S81.31,54.12,81.3,60.77Z"/><path class="b" d="M431.31,5.18h20.31V6.44q0,33.44,0,66.88a19.3,19.3,0,0,1-17.24,18.89c-1,.1-2,.15-3.07.23Z"/><path class="c" d="M73.35,21.33,67.7,28.5c-1-.86-1.9-1.73-2.88-2.51a33.78,33.78,0,0,0-22.61-7.78c-15.49.43-28.58,11-31.69,25.61a31.8,31.8,0,0,0,19.2,36.32c13.15,5.41,25.33,3.06,36.37-5.7.47-.37.91-.77,1.37-1.16l.29-.1,5.71,6.37a44,44,0,0,1-8.84,6.63,42.94,42.94,0,0,1-50.23-4.37C6.44,74.89,1.61,66.15.54,55.7c-1.79-17.4,5-31,19.83-40.16,16-9.89,37.47-7.85,51.59,4.51C72.4,20.44,72.83,20.85,73.35,21.33Z"/><path class="c" d="M308.47,64.45H258c.83,8.19,6.17,16.52,15.89,18.81,9.47,2.23,18.06.29,25.28-6.55.11-.1.24-.19.41-.32,1.67,1.8,3.33,3.57,5,5.39A25.76,25.76,0,0,1,298,87.34,35.38,35.38,0,0,1,276.21,92a29.87,29.87,0,0,1-16.12-6.1,28.63,28.63,0,0,1-10.7-18.12c-1.4-7.75-.73-15.29,2.91-22.36C257,36.33,264.67,31.36,274.7,30A34.78,34.78,0,0,1,289.77,31,24.1,24.1,0,0,1,305.2,44.55C308.09,50.82,308.76,57.47,308.47,64.45Zm-8.32-7.68c-.3-5.09-1.78-9.57-5.28-13.22-4.11-4.31-9.34-5.94-15.15-6-6.82,0-12.68,2.21-17.09,7.59a21.92,21.92,0,0,0-4.7,11.6Z"/><path class="c" d="M188,29.94h9.13V91.71H188V78.56l-.21-.07-.76,1.4a21.32,21.32,0,0,1-12.3,10.6,30.11,30.11,0,0,1-17.35.84c-8.94-2.28-13.91-8.3-15.59-17.16a35,35,0,0,1-.53-6.3c0-12.13,0-24.26,0-36.39V30h9.19v1.39c0,11.33-.05,22.66,0,34a26.27,26.27,0,0,0,.92,6.6,13.71,13.71,0,0,0,9.85,10c6.75,2,13.16,1.09,18.85-3.22,4.47-3.39,6.62-8.18,7.46-13.59a39.53,39.53,0,0,0,.4-6c0-9.26,0-18.51,0-27.77Z"/><path class="b" d="M398.4,92.33V29h20.21c0,.37.05.75.05,1.14q0,20.93,0,41.87A20.24,20.24,0,0,1,399,92.38C398.84,92.38,398.68,92.35,398.4,92.33Z"/><path class="c" d="M244.91,35.21l-3.51,7.24c-.35-.18-.65-.33-1-.5a31.18,31.18,0,0,0-18.59-4.35c-3.16.3-6.18,1.08-8.23,3.8a6.8,6.8,0,0,0,1.19,9.44,25.05,25.05,0,0,0,6.09,3.23c4.3,1.59,8.77,2.72,13,4.39a32.61,32.61,0,0,1,7.6,4.2c7.73,5.84,7.11,19.67-1.47,25.25a25.72,25.72,0,0,1-11.18,4,37,37,0,0,1-24.36-5.17A33.61,33.61,0,0,1,201,84.05a1.22,1.22,0,0,1-.38-1.06c1-2.15,2.13-4.26,3.18-6.32,2,1.3,3.77,2.7,5.76,3.76,6.66,3.56,13.71,5,21.17,3.1,3-.75,5.47-2.31,6.58-5.39a7.68,7.68,0,0,0-3-9.18c-3.11-2.23-6.79-3.11-10.33-4.35A125,125,0,0,1,212,60.05,13.57,13.57,0,0,1,203.89,50c-1.49-8.09,1.65-15.11,9.8-18.45C222.76,27.81,236.88,29.41,244.91,35.21Z"/><path class="a" d="M342.48,52.71V26.63c.37,0,.72-.05,1.06-.05,4.36,0,8.72-.11,13.06,0a24.31,24.31,0,0,1,6.35,1c5,1.55,7.69,5.55,7.78,11.22a19.21,19.21,0,0,1-.49,4.85,11.17,11.17,0,0,1-10.32,8.71c-3.41.33-6.86.25-10.28.31C347.29,52.74,344.94,52.71,342.48,52.71Z"/><path class="a" d="M481.53,57c.1-5.24,1.06-10.16,3.83-14.59,7.81-12.49,26.44-12.23,33.47.71,5,9.17,4.91,18.75-.15,27.9-3.88,7-10.36,10-18.29,9.42-7.53-.52-12.92-4.4-16.23-11.14A28.85,28.85,0,0,1,481.53,57Z"/><path class="a" d="M81.3,60.77c0-6.65,2-12.55,7-17.14s11.1-6.08,17.75-5.45a20.84,20.84,0,0,1,13.27,6.21,21.66,21.66,0,0,1,6,12.5,24.83,24.83,0,0,1-2.91,16.5c-3.85,6.57-9.78,9.87-17.28,10.4a21.9,21.9,0,0,1-15-4.06c-5.52-4.08-8.16-9.74-8.77-16.45C81.23,62.45,81.3,61.61,81.3,60.77Z"/><path class="a" d="M300.15,56.77H257.93a21.92,21.92,0,0,1,4.7-11.6c4.41-5.38,10.27-7.62,17.09-7.59,5.81,0,11,1.66,15.15,6C298.37,47.2,299.85,51.68,300.15,56.77Z"/></svg>