<svg id="Layer_1" data-name="Layer 1" xmlns="http://www.w3.org/2000/svg" viewBox="0 0 619.88 146.86"><defs><style>.cls-1,.cls-2,.cls-3,.cls-4{fill:#fff;}.cls-1{opacity:0.18;}.cls-2{opacity:0.1;}.cls-3{opacity:0.4;}</style></defs><path class="cls-1" d="M542.13,71.29C542.13,94,526,109,501.94,109S461.6,94,461.6,71.29s16.14-37.6,40.34-37.6S542.13,48.59,542.13,71.29Zm-60.66.27c0,14.22,8.3,23.69,20.48,23.69,12,0,20.31-9.47,20.31-23.69,0-14.05-8.29-23.69-20.31-23.69C489.77,47.87,481.47,57.51,481.47,71.56Z"/><path class="cls-2" d="M542.13,50.86c0,22.7-16.13,37.74-40.19,37.74s-40.34-15-40.34-37.74,16.14-37.59,40.34-37.59S542.13,28.17,542.13,50.86Zm-60.66.28c0,14.22,8.3,23.69,20.48,23.69,12,0,20.31-9.47,20.31-23.69,0-14-8.29-23.69-20.31-23.69C489.77,27.45,481.47,37.09,481.47,51.14Z"/><path class="cls-3" d="M542.13,88.71c0,22.69-16.13,37.73-40.19,37.73s-40.34-15-40.34-37.73,16.14-37.6,40.34-37.6S542.13,66,542.13,88.71ZM481.47,89c0,14.22,8.3,23.69,20.48,23.69,12,0,20.31-9.47,20.31-23.69,0-14-8.29-23.69-20.31-23.69C489.77,65.29,481.47,74.93,481.47,89Z"/><path class="cls-4" d="M126.29,84.62v7.66c-5.59-5.79-13.62-9.17-23.06-9.17-18.37,0-31.44,12.71-31.44,31.19s13.07,31.44,31.44,31.44c9.44,0,17.47-3.42,23.06-9.25v8.89h9.06V84.62ZM103.23,137.5c-13,0-22.25-9.42-22.25-23.08s9.3-23,22.25-23,22.25,9.42,22.25,23S116.18,137.5,103.23,137.5Z"/><path class="cls-4" d="M73.11,74.75l-5.65,7.18A34.66,34.66,0,0,0,43.09,71.57c-18.6,0-33.56,14.37-33.56,32.5s15,32.49,33.56,32.49a36,36,0,0,0,24.37-9.89l5.76,6.47C65.1,140.8,54,145.86,42.62,145.86,18.83,145.86,0,127.38,0,104.07,0,81,19.07,62.74,43,62.74A44.6,44.6,0,0,1,73.11,74.75Z"/><path class="cls-4" d="M197,145.39h-9.19v-14c-4.12,9.65-12.36,14.24-23.54,14.36-14.48,0-23.19-9.18-23.19-24.13V83.35h9.18v35.78c0,11,6.47,17.43,17.19,17.43,12.83-.24,20.36-9.54,20.36-22.72V83.35H197Z"/><path class="cls-4" d="M244.75,88.64l-3.53,7.3a32.8,32.8,0,0,0-16.84-5.06c-6.95,0-12.24,2.47-12.24,8.24,0,13.78,34.61,6.71,34.61,29,0,12.24-10.83,17.66-22.72,17.66-8.83,0-17.9-3.06-23.78-8.71l3.53-6.95a31.39,31.39,0,0,0,20.6,7.89c7.3,0,13.18-2.71,13.3-8.83.36-14.95-34.37-7.3-34.25-29.31C203.43,87.94,213.67,83,225,83A35.87,35.87,0,0,1,244.75,88.64Z"/><path class="cls-4" d="M308.34,118H257.71c1.65,12.12,10.48,19.78,22.49,19.78,7.65,0,14.36-2.71,19.19-7.77l5.06,5.41c-5.88,6.59-14.6,10.36-25,10.36-18.24,0-30.84-12.83-30.84-31.31s12.71-31.32,30.73-31.32C299.39,83,309.28,96.88,308.34,118Zm-8.24-7.54C299.51,98.53,291.5,91,279.38,91c-11.78,0-20.25,7.65-21.67,19.42Z"/><path class="cls-4" d="M357.29,63.52c21.07,0,33.2,10.36,33.2,28.72,0,19.31-12.13,30.49-33.2,30.49h-15V125a21,21,0,0,1-21,20.95h0V63.52Zm-15,42.73h13.89c9.18,0,14.48-4.59,14.48-13.3s-5.3-13-14.48-13H342.34Z"/><path class="cls-4" d="M419.28,64.22c0,6.36-4.48,10.83-10.72,10.83s-10.71-4.47-10.71-10.83a10.72,10.72,0,0,1,21.43,0Zm-21,81.7V82.47h20.25v43.21a20.25,20.25,0,0,1-20.25,20.24Z"/><path class="cls-4" d="M542.13,109.13c0,22.69-16.13,37.73-40.19,37.73s-40.34-15-40.34-37.73,16.14-37.6,40.34-37.6S542.13,86.43,542.13,109.13Zm-60.66.27c0,14.22,8.3,23.7,20.48,23.7,12,0,20.31-9.48,20.31-23.7,0-14-8.29-23.69-20.31-23.69C489.77,85.71,481.47,95.36,481.47,109.4Z"/><path class="cls-4" d="M521.93,53.59s28.26-11,32.7-39.06c0,0,27.55,16.42,65.25-14.53,0,0-7.87,34.69-58.51,28.57C561.37,28.57,546.87,51.94,521.93,53.59Z"/><path class="cls-4" d="M601.24,26.46h0c-10.32,5.26-23.18,7.14-38.27,5.6a66.85,66.85,0,0,1-8,9.18A83.62,83.62,0,0,0,585.81,40c17.07-4,22.79-15.58,24.25-19.41A45.2,45.2,0,0,1,601.24,26.46Z"/><path class="cls-4" d="M542.59,50.59a61.32,61.32,0,0,0,16.56,2c15.84-.41,28.61-10.47,28.61-10.47a66.74,66.74,0,0,1-35.67,1.74A60.4,60.4,0,0,1,542.59,50.59Z"/><path class="cls-4" d="M481.81,53.59s-28.27-11-32.71-39.06c0,0-27.55,16.42-65.24-14.53,0,0,7.87,34.69,58.51,28.57C442.37,28.57,456.86,51.94,481.81,53.59Z"/><path class="cls-4" d="M402.5,26.46h0c10.31,5.26,23.18,7.14,38.26,5.6a67.82,67.82,0,0,0,8,9.18A83.68,83.68,0,0,1,417.92,40c-17.07-4-22.79-15.58-24.24-19.41A45.2,45.2,0,0,0,402.5,26.46Z"/><path class="cls-4" d="M461.14,50.59a61.19,61.19,0,0,1-16.55,2C428.74,52.21,416,42.15,416,42.15a66.74,66.74,0,0,0,35.67,1.74A60.3,60.3,0,0,0,461.14,50.59Z"/><path class="cls-4" d="M447.72,62.71a33.2,33.2,0,0,1-16.54-4v87.22h1a19.39,19.39,0,0,0,19.4-19.4v-64C450.3,62.64,449,62.71,447.72,62.71Z"/><path class="cls-4" d="M590.34,127.38a21.86,21.86,0,0,1-7.88,2.12c-3.77.12-5.89-2-5.89-6.94V89.16h16.6V75.73h-16.6V58.19h-.24c-4.23,2.75-10.42,4.49-17.32,4.49-.91,0-1.8,0-2.69-.09V75.85h-8.83V89.16h8.83v36.57c0,13.19,8.83,20.14,21.08,20.14a34.49,34.49,0,0,0,17-4.36Z"/></svg>