<svg xmlns="http://www.w3.org/2000/svg" width="595.27" height="95.43" viewBox="0 0 595.27 95.43"><defs><style>.a{fill:#fff;}.a,.b{stroke:#fff;stroke-miterlimit:10;}.b{fill:none;}</style></defs><path class="a" d="M410.26.5c.78.23,1.57.43,2.34.68,4.86,1.58,7.63,6.23,7,11.69a10.19,10.19,0,0,1-9.44,9.21c-4.93.39-8.93-1.68-10.84-5.61A11.6,11.6,0,0,1,401,3.85a10.26,10.26,0,0,1,6-3.11,3.22,3.22,0,0,0,.61-.24Z"/><path class="a" d="M321.82,10.56h1.72c12,0,23.9-.05,35.85.06A38.28,38.28,0,0,1,377.77,15c7.7,4.22,11.75,10.9,12.84,19.45a36.07,36.07,0,0,1-1.55,16.75c-3.21,9.15-9.87,14.61-19.06,17a56.22,56.22,0,0,1-11.11,1.48c-4.91.25-9.84.06-14.75.06h-1.37a21.12,21.12,0,0,1-19,23.05,18.94,18.94,0,0,1-2,.1Zm20.95,42.65h7.16c3.42-.06,6.87,0,10.28-.31a11.18,11.18,0,0,0,10.32-8.71,19.31,19.31,0,0,0,.49-4.85c-.09-5.67-2.8-9.67-7.78-11.22a24.39,24.39,0,0,0-6.35-1c-4.34-.15-8.7,0-13.06,0a7.74,7.74,0,0,0-1.06.05Z"/><path class="a" d="M461.86,58.38c.12-10,2.27-18.1,7.88-25A35.4,35.4,0,0,1,490,21c11-2.52,21.95-2.11,32.32,2.77,11.36,5.35,17.81,14.51,19.67,26.86a40.19,40.19,0,0,1-3,23.25A33.51,33.51,0,0,1,518,92.27c-12.19,3.93-24.36,3.65-36.06-1.8C471.1,85.4,464.77,76.61,462.6,64.86,462.13,62.32,462,59.72,461.86,58.38Zm19.91-.91a28.86,28.86,0,0,0,2.63,12.3c3.31,6.74,8.7,10.62,16.23,11.14,7.93.54,14.41-2.39,18.29-9.42,5.06-9.15,5.13-18.73.15-27.9-7-12.94-25.66-13.2-33.47-.71C482.86,47.31,481.9,52.23,481.77,57.47Z"/><path class="a" d="M556.77,5.22h20.32V22.7H593.6V36.14H577.13V69.58a15,15,0,0,0,.13,1.9c.44,3.7,3.09,5.57,7.07,4.81,2.18-.43,4.3-1.17,6.56-1.81.09.29.23.71.36,1.15,1.12,3.94,2.23,7.89,3.36,11.82.17.57.36,1-.37,1.38-8.61,4.17-17.47,5.61-26.59,1.93-6.27-2.54-9.54-7.6-10.54-14.17a32.76,32.76,0,0,1-.29-4.64V36.2h-8.75V22.82h8.7Z"/><path class="a" d="M135.77,31.71V92.24h-9V83.68c-1.49,1.21-2.79,2.39-4.22,3.38-6.66,4.6-14.11,6.11-22.09,5.46a30.66,30.66,0,0,1-16.88-6.4,29.11,29.11,0,0,1-10.81-18.6,34,34,0,0,1,1.7-18.58A27.83,27.83,0,0,1,94.36,31.36c10.47-2.65,20.41-1.36,29.29,5.14.51.37,1,.79,1.48,1.21s.92.84,1.55,1.41V31.71ZM81.57,61.27c0,.84-.07,1.68,0,2.51.61,6.71,3.25,12.37,8.77,16.45a21.89,21.89,0,0,0,15,4.06c7.5-.53,13.43-3.83,17.28-10.4a24.85,24.85,0,0,0,2.91-16.5,21.67,21.67,0,0,0-6-12.5,20.86,20.86,0,0,0-13.27-6.21c-6.65-.63-12.71.85-17.75,5.45S81.58,54.62,81.57,61.27Z"/><path class="a" d="M431.58,5.68h20.31V73.82a19.3,19.3,0,0,1-17.24,18.89c-1,.1-2,.15-3.07.23Z"/><path class="a" d="M73.62,21.83,68,29c-1-.86-1.9-1.73-2.88-2.51a33.81,33.81,0,0,0-22.61-7.78c-15.49.43-28.58,11-31.69,25.61A31.8,31.8,0,0,0,30,80.64c13.15,5.41,25.33,3.06,36.37-5.7.47-.37.91-.77,1.37-1.16l.29-.1,5.75,6.37a44.32,44.32,0,0,1-8.84,6.63A42.94,42.94,0,0,1,14.7,82.31,39.21,39.21,0,0,1,.77,56.2c-1.75-17.4,5-31,19.87-40.2,16-9.89,37.47-7.85,51.59,4.51C72.67,20.94,73.1,21.35,73.62,21.83Z"/><path class="a" d="M308.77,65H258.25c.83,8.19,6.17,16.52,15.89,18.81,9.47,2.23,18.06.29,25.28-6.55.11-.1.24-.19.41-.32,1.67,1.8,3.33,3.57,5,5.39a26,26,0,0,1-6.62,5.56,35.38,35.38,0,0,1-21.76,4.66,29.93,29.93,0,0,1-16.12-6.1,28.62,28.62,0,0,1-10.7-18.12c-1.4-7.75-.73-15.29,2.91-22.36,4.69-9.09,12.37-14.06,22.4-15.46a34.76,34.76,0,0,1,15.07,1,24.09,24.09,0,0,1,15.46,13.49C308.36,51.32,309,58,308.77,65Zm-8.32-7.68c-.3-5.09-1.78-9.57-5.28-13.22-4.11-4.31-9.34-5.94-15.15-6-6.82,0-12.68,2.21-17.09,7.59a22,22,0,0,0-4.7,11.6Z"/><path class="a" d="M188.24,30.44h9.13V92.21h-9.1V79.06l-.21-.07-.76,1.4A21.31,21.31,0,0,1,175,91a30.1,30.1,0,0,1-17.35.84c-8.94-2.28-13.91-8.3-15.59-17.16a35,35,0,0,1-.53-6.3V30.49h9.19v1.39c0,11.33-.05,22.66,0,34a26.74,26.74,0,0,0,.92,6.6,13.71,13.71,0,0,0,9.85,10c6.75,2,13.16,1.09,18.85-3.22,4.47-3.39,6.62-8.18,7.46-13.59a38.86,38.86,0,0,0,.4-6V31.9Z"/><path class="a" d="M398.67,92.83V29.54h20.21c0,.37.05.75.05,1.14V72.55a20.25,20.25,0,0,1-19.67,20.33C399.11,92.88,399,92.85,398.67,92.83Z"/><path class="a" d="M245.18,35.71,241.67,43l-1-.5a31.16,31.16,0,0,0-18.59-4.35c-3.16.3-6.18,1.08-8.23,3.8A6.8,6.8,0,0,0,215,51.39a25.05,25.05,0,0,0,6.09,3.23c4.3,1.59,8.77,2.72,13,4.39a32.41,32.41,0,0,1,7.6,4.2c7.73,5.84,7.11,19.67-1.47,25.25a25.62,25.62,0,0,1-11.18,4,37,37,0,0,1-24.31-5.25,35,35,0,0,1-3.53-2.66,1.24,1.24,0,0,1-.38-1.06c1-2.15,2.13-4.26,3.18-6.32,2,1.3,3.77,2.7,5.76,3.76,6.66,3.56,13.71,5,21.17,3.1,3-.75,5.47-2.31,6.58-5.39a7.68,7.68,0,0,0-3-9.18c-3.11-2.23-6.79-3.11-10.33-4.35a123.38,123.38,0,0,1-12.06-4.56,13.57,13.57,0,0,1-8.07-10.07C202.67,42.39,205.77,35.37,214,32,223,28.31,237.15,29.91,245.18,35.71Z"/><path class="b" d="M342.77,53.21V27.13c.37,0,.72-.05,1.06-.05,4.36,0,8.72-.11,13.06,0a24.39,24.39,0,0,1,6.35,1c5,1.55,7.69,5.55,7.78,11.22a19.31,19.31,0,0,1-.49,4.85,11.18,11.18,0,0,1-10.32,8.71c-3.41.33-6.86.25-10.28.31C347.56,53.24,345.21,53.21,342.77,53.21Z"/><path class="b" d="M481.77,57.47c.1-5.24,1.06-10.16,3.83-14.59,7.81-12.49,26.44-12.23,33.47.71,5,9.17,4.91,18.75-.15,27.9-3.88,7-10.36,10-18.29,9.42-7.53-.52-12.92-4.4-16.23-11.14A28.86,28.86,0,0,1,481.77,57.47Z"/><path class="b" d="M81.57,61.27c0-6.65,2-12.55,7-17.14s11.1-6.08,17.75-5.45a20.86,20.86,0,0,1,13.27,6.21,21.67,21.67,0,0,1,6,12.5,24.85,24.85,0,0,1-2.91,16.5c-3.85,6.57-9.78,9.87-17.28,10.4a21.89,21.89,0,0,1-15-4.06c-5.52-4.08-8.16-9.74-8.77-16.45A16,16,0,0,1,81.57,61.27Z"/><path class="b" d="M300.42,57.27H258.2a22,22,0,0,1,4.7-11.6c4.41-5.38,10.27-7.62,17.09-7.59,5.81,0,11,1.66,15.15,6C298.64,47.7,300.12,52.18,300.42,57.27Z"/></svg>