<svg width="24" height="24" viewBox="0 0 24 24" fill="none" xmlns="http://www.w3.org/2000/svg">
    <path d="M12.0215 13.3607C14.0135 13.3607 15.6284 11.7458 15.6284 9.75376C15.6284 7.76172 14.0135 6.14685 12.0215 6.14685C10.0294 6.14685 8.41455 7.76172 8.41455 9.75376C8.41455 11.7458 10.0294 13.3607 12.0215 13.3607Z" fill="#1C2B44" />
    <path d="M12 2C6.49244 2 2 6.47084 2 12C2 17.5292 6.49244 22 12 22C17.5076 22 22 17.5076 22 12C22 6.49244 17.5076 2 12 2ZM17.8747 18.3067C17.1404 16.3412 15.5421 14.2462 12 14.2462C8.47948 14.2462 6.85961 16.3412 6.12527 18.3067C4.4406 16.73 3.36069 14.4838 3.36069 12C3.36069 7.24838 7.22678 3.36069 12 3.36069C16.7732 3.36069 20.6393 7.22678 20.6393 12C20.6393 14.4838 19.5594 16.73 17.8747 18.3067Z" fill="#1C2B44" />
</svg>
