<svg width="24" height="24" viewBox="0 0 24 24" fill="none" xmlns="http://www.w3.org/2000/svg">
    <path d="M6.73106 11.5902H19.2C19.4121 11.5902 19.6156 11.6745 19.7656 11.8245C19.9158 11.9746 20 12.1781 20 12.3902C20 12.6024 19.9158 12.8059 19.7656 12.9559C19.6156 13.106 19.4121 13.1902 19.2 13.1902H6.73106L10.9655 17.4247C11.1112 17.5756 11.1919 17.7777 11.19 17.9875C11.1882 18.1972 11.1041 18.3979 10.9558 18.5462C10.8074 18.6945 10.6068 18.7786 10.397 18.7804C10.1873 18.7822 9.98518 18.7016 9.83429 18.5559L4.23423 12.9558C4.08425 12.8058 4 12.6024 4 12.3902C4 12.1781 4.08425 11.9747 4.23423 11.8246L9.83429 6.22458C9.98518 6.07885 10.1873 5.99821 10.397 6.00003C10.6068 6.00185 10.8074 6.08599 10.9558 6.23432C11.1041 6.38264 11.1882 6.5833 11.19 6.79306C11.1919 7.00282 11.1112 7.2049 10.9655 7.35578L6.73106 11.5902Z" />
</svg>
