<svg width="24" height="24" viewBox="0 0 24 24" fill="none" xmlns="http://www.w3.org/2000/svg">
    <path d="M13.265 17.8471C18.1854 17.8237 18.6683 17.6392 18.6683 16.9474C18.6683 15.8262 18.6524 15.7776 18.149 15.5266L17.4253 15.1477C16.6742 14.6916 16.6742 13.4742 16.6742 12.6698C16.6742 7.59954 15.1259 5.24664 12.0131 5.24664C8.9004 5.24664 7.34847 7.60315 7.34847 12.6734C7.34847 13.4778 7.34847 14.6952 6.59737 15.1514L5.87024 15.5266C5.41034 15.7597 5.35085 15.9423 5.35085 16.9474C5.35085 17.4305 5.32245 17.3801 5.77612 17.5052C7.42034 17.7898 9.08903 17.9025 10.756 17.8417C10.6844 18.0453 10.6621 18.2634 10.691 18.4776C10.72 18.6918 10.7992 18.8959 10.9222 19.0725C11.0451 19.2492 11.2082 19.3934 11.3976 19.4928C11.5869 19.5924 11.7971 19.6443 12.0105 19.6443C12.2238 19.6443 12.434 19.5924 12.6234 19.4928C12.8128 19.3934 12.9758 19.2492 13.0988 19.0725C13.2217 18.8959 13.301 18.6918 13.3299 18.4776C13.3588 18.2634 13.3366 18.0453 13.265 17.8417V17.8471ZM9.48992 19.1734C8.12604 19.1998 6.76332 19.077 5.42543 18.8072C5.21057 18.7834 5.00268 18.7158 4.81433 18.6085C4.62599 18.5011 4.46109 18.356 4.32963 18.1822C4.19816 18.0083 4.10286 17.8093 4.0495 17.597C3.99612 17.3848 3.98579 17.1637 4.01911 16.9474C4.01911 15.478 4.22509 14.8508 5.27538 14.3191C5.38105 14.266 5.69622 14.1103 5.67047 14.1229C5.9019 14.0077 6.01762 13.5246 6.01762 12.6734C6.01762 7.79029 7.47366 4.85703 10.3751 4.09852C10.511 3.77282 10.7386 3.49493 11.0295 3.29957C11.3203 3.10419 11.6615 3 12.0105 3C12.3594 3 12.7006 3.10419 12.9915 3.29957C13.2823 3.49493 13.5099 3.77282 13.6459 4.09852C16.5473 4.85793 18.0033 7.78759 18.0033 12.6734C18.0033 13.5252 18.119 14.0083 18.3505 14.1229C18.3248 14.1103 18.6399 14.2651 18.7455 14.3191C19.8225 14.8635 20 15.3691 20 16.9474C20 18.6362 19.2055 19.0852 14.5284 19.177C14.3482 19.7089 14.0086 20.1706 13.5569 20.4974C13.1052 20.8243 12.5641 21 12.0091 21C11.4542 21 10.9131 20.8243 10.4614 20.4974C10.0097 20.1706 9.6701 19.7089 9.48992 19.177V19.1734Z" />
</svg>
