<svg width="24" height="24" viewBox="0 0 24 24" fill="none" xmlns="http://www.w3.org/2000/svg">
    <path d="M11.9346 13.8667L17.4299 8.26667C17.5607 8.13333 17.8224 8 18.0841 8C18.3458 8 18.4766 8.13333 18.7383 8.26667C18.8692 8.4 19 8.66667 19 8.93333C19 9.2 18.8692 9.33333 18.7383 9.6L12.5888 15.7333C12.4579 15.8667 12.1963 16 11.9346 16C11.6729 16 11.5421 15.8667 11.4112 15.7333L5.26168 9.46667C5.13084 9.33333 5 9.06667 5 8.93333C5 8.66667 5.13084 8.53333 5.26168 8.26667C5.39252 8.13333 5.65421 8 5.91589 8C6.04673 8 6.30841 8.13333 6.43925 8.26667L11.9346 13.8667Z" fill="#333333" />
</svg>
