<svg width="24" height="24" viewBox="0 0 24 24" fill="none" xmlns="http://www.w3.org/2000/svg">
    <path d="M2.60288 4.17801C2.27825 4.17801 2 3.94241 2 3.61256C2 3.28272 2.27825 3 2.60288 3H4.87528C6.12741 3 7.14767 3.89529 7.37955 5.12041L7.61143 6.39266H21.4313C21.8487 6.39266 22.1269 6.86386 21.9414 7.24083L18.5097 14.6858C18.4169 14.8743 18.2314 15.0157 17.9995 15.0157H9.23457L9.37369 15.8167C9.51282 16.4764 10.0693 16.9476 10.7186 16.9476H18.2778C18.6024 16.9476 18.8807 17.2303 18.8807 17.5602C18.8807 17.89 18.6024 18.1727 18.2778 18.1727H10.7186C9.46644 18.1727 8.44618 17.2775 8.21431 16.0523L6.22016 5.35602C6.12741 4.64921 5.57091 4.17801 4.87528 4.17801H2.60288ZM7.8433 7.57067L9.00269 13.8377H17.6285L20.5038 7.57067H7.8433Z" fill="#1C2B44" />
    <path fill-rule="evenodd" clip-rule="evenodd" d="M10.1157 18.8796C10.6722 18.8796 11.136 19.3508 11.136 19.9162C11.136 20.5288 10.6722 21 10.1157 21C9.51283 21 9.04907 20.5288 9.04907 19.9162C9.04907 19.3508 9.51283 18.8796 10.1157 18.8796Z" fill="#1C2B44" />
    <path fill-rule="evenodd" clip-rule="evenodd" d="M17.3503 18.8796C17.9068 18.8796 18.3706 19.3508 18.3706 19.9162C18.3706 20.5288 17.9068 21 17.3503 21C16.7474 21 16.2837 20.5288 16.2837 19.9162C16.2837 19.3508 16.7474 18.8796 17.3503 18.8796Z" fill="#1C2B44" />
</svg>
