<svg width="24" height="24" viewBox="0 0 24 24" fill="none" xmlns="http://www.w3.org/2000/svg">
    <path fill-rule="evenodd" clip-rule="evenodd" d="M19.6401 8.95058L10.9039 17.6802C10.7076 17.8721 10.4131 18 10.0859 18C9.75869 18 9.49693 17.8721 9.26789 17.6802L4.3272 12.7558C4.13088 12.564 4 12.2762 4 11.9564C4 11.3169 4.52352 10.8052 5.14519 10.8052C5.47239 10.8052 5.73415 10.9331 5.96319 11.125L10.0859 15.25L18.0368 7.31977C18.2331 7.12791 18.5276 7 18.8548 7C19.4765 7 20 7.51163 20 8.15116C19.9673 8.47093 19.8364 8.75872 19.6401 8.95058Z" fill="#ffffff" />
</svg>
