<svg width="24" height="24" viewBox="0 0 24 24" fill="none" xmlns="http://www.w3.org/2000/svg">
    <path d="M19.6938 11.2112C19.3589 11.1861 19.0376 11.0683 18.7657 10.871C18.4939 10.6737 18.2822 10.4047 18.1545 10.094L17.7385 9.08081C17.5871 8.76355 17.5313 8.40912 17.578 8.06071C17.6245 7.7123 17.7712 7.38493 18.0006 7.11848L18.5227 6.53638L17.4635 5.48021L16.8844 5.9983C16.6304 6.2174 16.3205 6.36152 15.9894 6.4145C15.6581 6.46749 15.3188 6.42727 15.0091 6.29835L14.0089 5.87927C13.675 5.76384 13.3818 5.55388 13.165 5.27494C12.9482 4.996 12.8171 4.66008 12.7877 4.30802L12.7437 3.49788C12.3366 3.49788 11.6605 3.49788 11.2544 3.49788L11.2094 4.31901C11.1821 4.65169 11.0634 4.97033 10.8664 5.23984C10.6695 5.50933 10.4019 5.71918 10.0932 5.84627L9.08708 6.25834C8.77007 6.41206 8.41511 6.47 8.06569 6.42505C7.71627 6.3801 7.38753 6.23423 7.11974 6.0053L6.53665 5.48321L5.48047 6.53539L6.00556 7.12148C6.22227 7.37563 6.36436 7.6848 6.41609 8.01476C6.46782 8.34471 6.42715 8.68254 6.2986 8.9908L5.87654 10.006C5.75839 10.3361 5.54731 10.6251 5.26871 10.838C4.9901 11.051 4.65587 11.1788 4.30627 11.2062L3.49513 11.2502C3.49513 11.6612 3.49513 12.3334 3.49513 12.7384L4.30327 12.7834C4.6384 12.8083 4.96002 12.9258 5.2322 13.123C5.50436 13.3201 5.71637 13.589 5.84452 13.8996L6.2566 14.9068C6.41028 15.2252 6.46774 15.5815 6.4219 15.9319C6.37606 16.2824 6.22893 16.612 5.99855 16.8801L5.47647 17.4622L6.53065 18.5184L7.11575 17.9933C7.36938 17.7754 7.67839 17.6322 8.00852 17.5792C8.33865 17.5262 8.677 17.5657 8.98605 17.6932L9.98622 18.1124C10.3199 18.2279 10.6126 18.4383 10.8285 18.7177C11.0443 18.9971 11.1739 19.3336 11.2014 19.6856L11.2464 20.4978C11.6465 20.4978 12.3276 20.4978 12.7357 20.4978L12.7807 19.6776C12.808 19.3444 12.927 19.0253 13.1246 18.7556C13.3221 18.4858 13.5905 18.2759 13.8999 18.1493L14.9 17.7382C15.2196 17.5836 15.5776 17.5259 15.9295 17.5726C16.2815 17.6191 16.612 17.7678 16.8804 18.0003L17.4625 18.5224L18.5186 17.4682L18.0006 16.8852C17.7813 16.631 17.6371 16.3209 17.584 15.9895C17.531 15.6581 17.5714 15.3186 17.7006 15.0088L18.1446 13.9376C18.2686 13.6199 18.4796 13.3436 18.7534 13.1403C19.0272 12.9371 19.3528 12.8151 19.6929 12.7884L20.505 12.7434C20.505 12.3384 20.505 11.6622 20.505 11.2552L19.6938 11.2112ZM20.9801 9.77894C21.2296 9.79748 21.4656 9.90002 21.6494 10.0699C21.8332 10.2397 21.9541 10.4668 21.9922 10.7141C22.0033 10.8001 22.0033 13.1995 21.9922 13.2835C21.9554 13.5315 21.8351 13.7596 21.651 13.9298C21.4669 14.1001 21.2302 14.2023 20.9801 14.2197L19.7729 14.2867C19.7203 14.2984 19.6716 14.3228 19.6306 14.3576C19.5897 14.3925 19.5579 14.4368 19.5378 14.4867L19.0767 15.5999C19.0614 15.646 19.0568 15.695 19.0632 15.7432C19.0695 15.7914 19.0869 15.8374 19.1138 15.8779L19.9209 16.7781C20.089 16.9752 20.1806 17.2259 20.1796 17.4848C20.1785 17.7438 20.0846 17.9937 19.9149 18.1894L18.1596 19.9417C17.9634 20.1008 17.7172 20.1857 17.4646 20.1814C17.2119 20.177 16.9689 20.0836 16.7784 19.9177L15.8782 19.1125C15.8321 19.0837 15.7796 19.0666 15.7255 19.0627C15.6712 19.0589 15.6169 19.0684 15.5672 19.0906L14.457 19.5486C14.4132 19.5705 14.3751 19.602 14.3453 19.6409C14.3155 19.6797 14.2949 19.7247 14.2849 19.7726L14.2189 20.9788C14.2008 21.2284 14.0985 21.4644 13.9288 21.6482C13.7591 21.8321 13.5321 21.9529 13.2848 21.991C13.1988 22.003 10.7974 22.003 10.7123 21.991C10.4649 21.9532 10.2376 21.8324 10.0677 21.6485C9.89781 21.4646 9.79538 21.2284 9.77719 20.9788L9.71018 19.7717C9.69858 19.719 9.67429 19.67 9.63942 19.6289C9.60457 19.5876 9.56018 19.5556 9.51015 19.5355L8.39896 19.0756C8.35279 19.0606 8.30386 19.0561 8.25574 19.0625C8.20761 19.0688 8.16156 19.0859 8.12091 19.1125L7.22076 19.9196C7.02393 20.0879 6.77321 20.18 6.51421 20.1791C6.25522 20.1782 6.00516 20.0843 5.80952 19.9146L4.05523 18.1583C3.89642 17.9621 3.81177 17.7162 3.81617 17.4638C3.82056 17.2115 3.9137 16.9686 4.07924 16.7781L4.88637 15.8779C4.91513 15.8319 4.93219 15.7794 4.93602 15.7252C4.93986 15.6709 4.93036 15.6166 4.90837 15.5669L4.45029 14.4567C4.42812 14.4133 4.39648 14.3753 4.35771 14.3457C4.31893 14.3161 4.27402 14.2956 4.22626 14.2857L3.01905 14.2197C2.76943 14.2013 2.53341 14.0988 2.34957 13.929C2.16571 13.7591 2.04491 13.5319 2.00688 13.2845C1.99788 13.1995 1.99788 10.7991 2.00589 10.7141C2.0443 10.4667 2.16535 10.2396 2.34933 10.0698C2.5333 9.89995 2.76937 9.79744 3.01905 9.77894L4.22626 9.71293C4.27876 9.70092 4.32759 9.6765 4.36867 9.64168C4.40974 9.60687 4.44186 9.56271 4.4623 9.51288L4.92238 8.39871C4.93764 8.3528 4.94232 8.30403 4.93609 8.25606C4.92985 8.20808 4.91285 8.16213 4.88637 8.12165L4.07924 7.2215C3.9104 7.02518 3.81755 6.77482 3.81755 6.51589C3.81755 6.25695 3.9104 6.00659 4.07924 5.81026L5.84053 4.05597C6.03659 3.89723 6.2823 3.81263 6.5345 3.81703C6.78673 3.82141 7.02935 3.91452 7.21976 4.07998L8.11991 4.88711C8.16585 4.91587 8.21813 4.93293 8.27219 4.93677C8.32625 4.9406 8.38043 4.9311 8.42997 4.90912L9.54015 4.45104C9.58364 4.42892 9.6216 4.39731 9.6512 4.35853C9.68082 4.31973 9.70131 4.27479 9.71118 4.227L9.77719 3.0208C9.79556 2.7709 9.89816 2.53464 10.0682 2.35061C10.2382 2.16657 10.4657 2.04567 10.7133 2.00764C10.7994 1.99763 13.1998 1.99763 13.2848 2.00663C13.5323 2.04487 13.7595 2.16587 13.9293 2.34989C14.0992 2.53389 14.2016 2.77005 14.2199 3.0198L14.2859 4.226C14.2979 4.27852 14.3223 4.3274 14.3571 4.36849C14.3919 4.40958 14.4361 4.44167 14.486 4.46205L15.5992 4.92312C15.6451 4.93808 15.6937 4.94252 15.7414 4.93611C15.7892 4.92971 15.835 4.91262 15.8752 4.88611L16.7754 4.07897C16.9723 3.91084 17.223 3.81887 17.482 3.81979C17.7409 3.8207 17.9909 3.91444 18.1866 4.08398L19.9389 5.84027C20.098 6.0364 20.1826 6.28232 20.1782 6.53476C20.1739 6.78721 20.0806 7.03003 19.9149 7.2205L19.1087 8.12065C19.0797 8.16665 19.0625 8.21908 19.0584 8.27331C19.0544 8.32755 19.0638 8.38193 19.0857 8.43171L19.5438 9.5419C19.5658 9.58548 19.5975 9.62351 19.6362 9.65313C19.675 9.68276 19.72 9.70319 19.7679 9.71293L20.9801 9.77894ZM11.9996 15.4999C11.3072 15.4999 10.6304 15.2946 10.0547 14.9099C9.47906 14.5253 9.0304 13.9786 8.76544 13.3389C8.50049 12.6993 8.43117 11.9954 8.56623 11.3164C8.7013 10.6373 9.0347 10.0136 9.52426 9.52401C10.0138 9.03445 10.6376 8.70105 11.3166 8.56598C11.9957 8.43092 12.6995 8.50023 13.3392 8.76519C13.9788 9.03013 14.5255 9.47881 14.9102 10.0545C15.2949 10.6301 15.5001 11.307 15.5001 11.9993C15.5001 12.9277 15.1314 13.8181 14.4749 14.4746C13.8184 15.1311 12.928 15.4999 11.9996 15.4999ZM11.9996 13.9996C12.3952 13.9996 12.7819 13.8823 13.1109 13.6625C13.4398 13.4427 13.6962 13.1303 13.8476 12.7648C13.999 12.3993 14.0386 11.9971 13.9615 11.6091C13.8843 11.221 13.6938 10.8646 13.414 10.5849C13.1343 10.3051 12.7778 10.1146 12.3898 10.0374C12.0018 9.96023 11.5996 9.99983 11.2341 10.1512C10.8686 10.3026 10.5561 10.559 10.3363 10.888C10.1165 11.2169 9.99923 11.6037 9.99923 11.9993C9.99923 12.5298 10.21 13.0386 10.5851 13.4137C10.9602 13.7889 11.469 13.9996 11.9996 13.9996Z" fill="#1C2B44" />
</svg>
