<svg width="24" height="24" viewBox="0 0 24 24" fill="none" xmlns="http://www.w3.org/2000/svg">
    <path d="M12 20.5C13.6811 20.5 15.3245 20.0014 16.7223 19.0675C18.1202 18.1335 19.2096 16.806 19.8529 15.2529C20.4963 13.6996 20.6646 11.9906 20.3367 10.3417C20.0086 8.69289 19.1991 7.17833 18.0104 5.98958C16.8216 4.80085 15.3071 3.9913 13.6582 3.66333C12.0094 3.33535 10.3004 3.50368 8.74718 4.14703C7.19401 4.79037 5.8665 5.87983 4.93251 7.27765C3.99852 8.67546 3.50001 10.3188 3.50001 12C3.50001 14.2543 4.39554 16.4163 5.98958 18.0105C7.58365 19.6045 9.74565 20.5 12 20.5ZM12 22C10.0222 22 8.08879 21.4135 6.44429 20.3146C4.7998 19.2159 3.51808 17.6541 2.76122 15.8268C2.00433 13.9996 1.8063 11.9889 2.19215 10.0491C2.57801 8.10928 3.53041 6.32746 4.92894 4.92894C6.32746 3.53041 8.10928 2.57801 10.0491 2.19215C11.9889 1.8063 13.9996 2.00433 15.8268 2.76122C17.6541 3.51808 19.2159 4.7998 20.3146 6.44429C21.4135 8.08879 21.9999 10.0222 21.9999 12C21.9999 14.6521 20.9464 17.1957 19.071 19.0711C17.1957 20.9464 14.6521 22 12 22ZM11 11C11 10.7348 11.1053 10.4804 11.2929 10.2929C11.4804 10.1054 11.7348 9.99999 12 9.99999C12.2652 9.99999 12.5196 10.1054 12.7071 10.2929C12.8946 10.4804 13 10.7348 13 11V16C13 16.2652 12.8946 16.5196 12.7071 16.7071C12.5196 16.8946 12.2652 16.9999 12 16.9999C11.7348 16.9999 11.4804 16.8946 11.2929 16.7071C11.1053 16.5196 11 16.2652 11 16V11ZM12 8.99999C11.8022 8.99999 11.6089 8.94134 11.4444 8.83146C11.28 8.72159 11.1518 8.56541 11.0761 8.38268C11.0004 8.19995 10.9806 7.99889 11.0192 7.80491C11.0578 7.61093 11.153 7.43275 11.2929 7.29289C11.4327 7.15304 11.6109 7.05779 11.8049 7.01921C11.9989 6.98063 12.1999 7.00043 12.3827 7.07612C12.5654 7.15181 12.7216 7.27997 12.8315 7.44443C12.9413 7.60888 13 7.80221 13 8C13 8.26522 12.8946 8.51957 12.7071 8.7071C12.5196 8.89464 12.2652 8.99999 12 8.99999Z" />
</svg>
