<svg width="24" height="24" viewBox="0 0 24 24" fill="none" xmlns="http://www.w3.org/2000/svg">
    <path d="M14.7174 15.9752C13.3721 17.0015 11.687 17.4784 10.0033 17.3089C8.31966 17.1395 6.76328 16.3365 5.64935 15.0627C4.53541 13.789 3.94717 12.1395 4.00373 10.4482C4.06028 8.75702 4.7574 7.15049 5.95395 5.95395C7.15049 4.7574 8.75702 4.06028 10.4482 4.00373C12.1395 3.94717 13.789 4.53541 15.0627 5.64935C16.3365 6.76328 17.1395 8.31966 17.3089 10.0033C17.4784 11.687 17.0015 13.3721 15.9752 14.7174L19.7502 18.4925C19.9123 18.6603 20.002 18.8849 20 19.1182C19.9978 19.3514 19.9043 19.5745 19.7394 19.7394C19.5745 19.9043 19.3514 19.9978 19.1182 20C18.8849 20.002 18.6603 19.9123 18.4925 19.7502L14.7174 15.9752ZM10.6712 15.5633C11.6388 15.5633 12.5846 15.2765 13.3892 14.7389C14.1937 14.2013 14.8207 13.4373 15.191 12.5434C15.5613 11.6494 15.6582 10.6658 15.4694 9.71676C15.2806 8.76775 14.8147 7.89605 14.1305 7.21185C13.4463 6.52766 12.5746 6.06172 11.6256 5.87296C10.6766 5.6842 9.69294 5.78108 8.79901 6.15135C7.90507 6.52163 7.141 7.14869 6.60345 7.95321C6.06588 8.75773 5.77895 9.70359 5.77895 10.6712C5.77895 11.9687 6.29439 13.213 7.21185 14.1305C8.12933 15.0479 9.37368 15.5633 10.6712 15.5633Z" />
</svg>
