<svg width="24" height="24" viewBox="0 0 24 24" fill="none" xmlns="http://www.w3.org/2000/svg">
    <path d="M9.21799 7.32599C9.4011 7.1651 9.59488 7.01677 9.79798 6.88199C10.0131 6.73913 10.2411 6.6166 10.479 6.51599C10.735 6.40852 11.0009 6.32645 11.273 6.271C11.5778 6.20959 11.8881 6.17977 12.199 6.182C12.6174 6.17705 13.0338 6.2402 13.432 6.36899C13.7818 6.48172 14.1058 6.6629 14.385 6.902C14.6491 7.13197 14.8591 7.41743 14.9999 7.738C15.1496 8.08513 15.2239 8.46003 15.218 8.83799C15.2258 9.18672 15.1679 9.53379 15.047 9.86099C14.9429 10.1314 14.7986 10.3846 14.619 10.612C14.4542 10.8183 14.2648 11.0037 14.055 11.164L13.475 11.604C13.3091 11.7265 13.1517 11.8601 13.004 12.004C12.8787 12.1234 12.7955 12.2803 12.767 12.451L12.588 13.587H11.272L11.14 12.319C11.1048 12.0993 11.1416 11.874 11.245 11.677C11.3493 11.4873 11.4845 11.3163 11.645 11.171C11.8228 11.0105 12.0112 10.8622 12.209 10.727C12.4148 10.5858 12.61 10.4297 12.793 10.26C12.9721 10.0944 13.1254 9.90293 13.248 9.692C13.3748 9.46245 13.438 9.20316 13.431 8.94099C13.4336 8.76858 13.3978 8.59776 13.326 8.441C13.2569 8.29463 13.1574 8.16473 13.034 8.06C12.9025 7.94981 12.7506 7.86656 12.587 7.81499C12.4048 7.75652 12.2144 7.7275 12.023 7.729C11.769 7.72418 11.5158 7.7579 11.272 7.829C11.0913 7.88371 10.9168 7.95676 10.751 8.047C10.6083 8.12767 10.4877 8.20032 10.389 8.26499C10.3121 8.32317 10.2201 8.3579 10.124 8.365C10.0419 8.36897 9.96048 8.34908 9.88948 8.30774C9.81849 8.26638 9.76101 8.20534 9.72399 8.132L9.21799 7.32599ZM10.688 16.5C10.6873 16.3426 10.7175 16.1866 10.777 16.041C10.8328 15.9012 10.9161 15.774 11.022 15.667C11.246 15.4468 11.5479 15.3238 11.862 15.325C12.0211 15.3235 12.1788 15.3552 12.325 15.418C12.4638 15.4776 12.5905 15.5619 12.699 15.667C12.8093 15.7758 12.8969 15.9054 12.9567 16.0483C13.0165 16.1911 13.0473 16.3446 13.0473 16.4995C13.0473 16.6545 13.0165 16.8078 12.9567 16.9507C12.8969 17.0937 12.8093 17.2233 12.699 17.332C12.4753 17.5494 12.1749 17.6697 11.863 17.667C11.703 17.6683 11.5443 17.638 11.396 17.578C11.2565 17.5227 11.1298 17.4397 11.0234 17.334C10.917 17.2282 10.8332 17.1021 10.777 16.963C10.7167 16.8162 10.6864 16.6587 10.688 16.5ZM12 20.5C13.6811 20.5 15.3245 20.0014 16.7224 19.0675C18.1202 18.1335 19.2097 16.806 19.853 15.2529C20.4964 13.6996 20.6647 11.9906 20.3366 10.3417C20.0087 8.69289 19.1992 7.17833 18.0104 5.98958C16.8217 4.80085 15.3071 3.9913 13.6583 3.66333C12.0094 3.33535 10.3003 3.50368 8.74717 4.14703C7.19402 4.79037 5.86649 5.87983 4.9325 7.27765C3.99851 8.67546 3.5 10.3188 3.5 12C3.5 14.2543 4.39553 16.4163 5.98959 18.0105C7.58364 19.6045 9.74565 20.5 12 20.5ZM12 22C10.0222 22 8.08878 21.4135 6.44429 20.3146C4.7998 19.2159 3.51808 17.6541 2.76121 15.8268C2.00433 13.9996 1.8063 11.9889 2.19216 10.0491C2.578 8.10928 3.53041 6.32746 4.92893 4.92894C6.32745 3.53041 8.10929 2.57801 10.0491 2.19215C11.9889 1.8063 13.9995 2.00433 15.8269 2.76122C17.654 3.51808 19.2158 4.7998 20.3147 6.44429C21.4135 8.08879 22 10.0222 22 12C22 14.6521 20.9464 17.1957 19.0711 19.0711C17.1956 20.9464 14.6521 22 12 22Z" fill="#1C2B44" />
</svg>
