<?xml version="1.0" encoding="UTF-8"?>
<svg version="1.1" xmlns="http://www.w3.org/2000/svg" xmlns:xlink="http://www.w3.org/1999/xlink">
    <symbol id="arrow-left" viewBox="0 0 24 24" xmlns="http://www.w3.org/2000/svg">
        <path d="M6.73106 11.5902H19.2C19.4121 11.5902 19.6156 11.6745 19.7656 11.8245C19.9158 11.9746 20 12.1781 20 12.3902C20 12.6024 19.9158 12.8059 19.7656 12.9559C19.6156 13.106 19.4121 13.1902 19.2 13.1902H6.73106L10.9655 17.4247C11.1112 17.5756 11.1919 17.7777 11.19 17.9875C11.1882 18.1972 11.1041 18.3979 10.9558 18.5462C10.8074 18.6945 10.6068 18.7786 10.397 18.7804C10.1873 18.7822 9.98518 18.7016 9.83429 18.5559L4.23423 12.9558C4.08425 12.8058 4 12.6024 4 12.3902C4 12.1781 4.08425 11.9747 4.23423 11.8246L9.83429 6.22458C9.98518 6.07885 10.1873 5.99821 10.397 6.00003C10.6068 6.00185 10.8074 6.08599 10.9558 6.23432C11.1041 6.38264 11.1882 6.5833 11.19 6.79306C11.1919 7.00282 11.1112 7.2049 10.9655 7.35578L6.73106 11.5902Z" />
    </symbol>
    <symbol id="bell-outline" viewBox="0 0 24 24" xmlns="http://www.w3.org/2000/svg">
        <path d="M13.265 17.8471C18.1854 17.8237 18.6683 17.6392 18.6683 16.9474C18.6683 15.8262 18.6524 15.7776 18.149 15.5266L17.4253 15.1477C16.6742 14.6916 16.6742 13.4742 16.6742 12.6698C16.6742 7.59954 15.1259 5.24664 12.0131 5.24664C8.9004 5.24664 7.34847 7.60315 7.34847 12.6734C7.34847 13.4778 7.34847 14.6952 6.59737 15.1514L5.87024 15.5266C5.41034 15.7597 5.35085 15.9423 5.35085 16.9474C5.35085 17.4305 5.32245 17.3801 5.77612 17.5052C7.42034 17.7898 9.08903 17.9025 10.756 17.8417C10.6844 18.0453 10.6621 18.2634 10.691 18.4776C10.72 18.6918 10.7992 18.8959 10.9222 19.0725C11.0451 19.2492 11.2082 19.3934 11.3976 19.4928C11.5869 19.5924 11.7971 19.6443 12.0105 19.6443C12.2238 19.6443 12.434 19.5924 12.6234 19.4928C12.8128 19.3934 12.9758 19.2492 13.0988 19.0725C13.2217 18.8959 13.301 18.6918 13.3299 18.4776C13.3588 18.2634 13.3366 18.0453 13.265 17.8417V17.8471ZM9.48992 19.1734C8.12604 19.1998 6.76332 19.077 5.42543 18.8072C5.21057 18.7834 5.00268 18.7158 4.81433 18.6085C4.62599 18.5011 4.46109 18.356 4.32963 18.1822C4.19816 18.0083 4.10286 17.8093 4.0495 17.597C3.99612 17.3848 3.98579 17.1637 4.01911 16.9474C4.01911 15.478 4.22509 14.8508 5.27538 14.3191C5.38105 14.266 5.69622 14.1103 5.67047 14.1229C5.9019 14.0077 6.01762 13.5246 6.01762 12.6734C6.01762 7.79029 7.47366 4.85703 10.3751 4.09852C10.511 3.77282 10.7386 3.49493 11.0295 3.29957C11.3203 3.10419 11.6615 3 12.0105 3C12.3594 3 12.7006 3.10419 12.9915 3.29957C13.2823 3.49493 13.5099 3.77282 13.6459 4.09852C16.5473 4.85793 18.0033 7.78759 18.0033 12.6734C18.0033 13.5252 18.119 14.0083 18.3505 14.1229C18.3248 14.1103 18.6399 14.2651 18.7455 14.3191C19.8225 14.8635 20 15.3691 20 16.9474C20 18.6362 19.2055 19.0852 14.5284 19.177C14.3482 19.7089 14.0086 20.1706 13.5569 20.4974C13.1052 20.8243 12.5641 21 12.0091 21C11.4542 21 10.9131 20.8243 10.4614 20.4974C10.0097 20.1706 9.6701 19.7089 9.48992 19.177V19.1734Z" />
    </symbol>
    <symbol id="building-outline" viewBox="0 0 24 24" xmlns="http://www.w3.org/2000/svg">
        <path d="M16.7799 20.335C16.4608 20.335 16.1548 20.2082 15.929 19.9825C15.7034 19.7569 15.5765 19.4509 15.5765 19.1316V16.585H13.4224V19.1316C13.4224 19.4509 13.2956 19.7569 13.07 19.9825C12.8443 20.2082 12.5383 20.335 12.2191 20.335H4.03574C3.87776 20.335 3.72128 20.3039 3.57534 20.2434C3.42939 20.1829 3.29679 20.0942 3.18512 19.9825C3.07345 19.8707 2.98498 19.7381 2.9246 19.5921C2.86422 19.4461 2.83314 19.2896 2.83325 19.1316V9.86999C2.83325 9.55106 2.95991 9.24517 3.18543 9.01966C3.41094 8.79415 3.71682 8.66749 4.03574 8.66749H8.66658V4.86999C8.66648 4.712 8.69756 4.55551 8.75793 4.40953C8.81832 4.26354 8.90678 4.13091 9.01846 4.01916C9.13013 3.90741 9.26272 3.81871 9.40867 3.75824C9.55462 3.69775 9.71109 3.66663 9.86908 3.66663H19.1308C19.2888 3.66663 19.4453 3.69775 19.5911 3.75824C19.7371 3.81871 19.8698 3.90741 19.9814 4.01916C20.093 4.13091 20.1816 4.26354 20.242 4.40953C20.3024 4.55551 20.3334 4.712 20.3333 4.86999V19.1316C20.3334 19.2896 20.3024 19.4461 20.242 19.5921C20.1816 19.7381 20.093 19.8707 19.9814 19.9825C19.8698 20.0942 19.7371 20.1829 19.5911 20.2434C19.4453 20.3039 19.2888 20.335 19.1308 20.335H16.7799ZM16.1233 15.335C16.2158 15.335 16.3074 15.3532 16.3929 15.3886C16.4784 15.4241 16.5561 15.4761 16.6215 15.5415C16.6869 15.607 16.7388 15.6847 16.7741 15.7702C16.8094 15.8557 16.8275 15.9475 16.8274 16.04V19.085H19.084V4.91831H9.91739V19.085H12.1733V16.04C12.1733 15.853 12.2475 15.6737 12.3798 15.5415C12.512 15.4092 12.6912 15.335 12.8782 15.335H16.1233ZM4.08407 19.085H8.66741V9.91831H4.08407V19.085ZM5.75073 17.835C5.64023 17.835 5.53428 17.7911 5.45613 17.713C5.37799 17.6349 5.33407 17.5289 5.33407 17.4184V15.9184C5.33407 15.8079 5.37799 15.7019 5.45613 15.6236C5.53428 15.5455 5.64023 15.5016 5.75073 15.5016H7.00744C7.11796 15.5016 7.22391 15.5455 7.30204 15.6236C7.38018 15.7019 7.42412 15.8079 7.42412 15.9184V17.425C7.42412 17.5355 7.38018 17.6415 7.30204 17.7196C7.22391 17.7977 7.11796 17.8416 7.00744 17.8416L5.75073 17.835ZM5.75073 13.6558C5.64023 13.6558 5.53428 13.6119 5.45613 13.5338C5.37799 13.4556 5.33407 13.3496 5.33407 13.2391V11.7325C5.33407 11.622 5.37799 11.516 5.45613 11.4378C5.53428 11.3597 5.64023 11.3158 5.75073 11.3158H7.00744C7.11796 11.3158 7.22391 11.3597 7.30204 11.4378C7.38018 11.516 7.42412 11.622 7.42412 11.7325V13.2391C7.42412 13.3496 7.38018 13.4556 7.30204 13.5338C7.22391 13.6119 7.11796 13.6558 7.00744 13.6558H5.75073ZM16.059 13.4683C15.9485 13.4683 15.8426 13.4244 15.7645 13.3463C15.6863 13.2681 15.6424 13.1621 15.6424 13.0516V11.545C15.6424 11.4345 15.6863 11.3285 15.7645 11.2503C15.8426 11.1722 15.9485 11.1283 16.059 11.1283H17.3158C17.4263 11.1283 17.5323 11.1722 17.6104 11.2503C17.6885 11.3285 17.7324 11.4345 17.7324 11.545V13.0516C17.7324 13.1621 17.6885 13.2681 17.6104 13.3463C17.5323 13.4244 17.4263 13.4683 17.3158 13.4683H16.059ZM11.6932 13.4683C11.5827 13.4683 11.4768 13.4244 11.3986 13.3463C11.3205 13.2681 11.2766 13.1621 11.2766 13.0516V11.545C11.2766 11.4345 11.3205 11.3285 11.3986 11.2503C11.4768 11.1722 11.5827 11.1283 11.6932 11.1283H12.9491C13.0596 11.1283 13.1656 11.1722 13.2437 11.2503C13.3219 11.3285 13.3658 11.4345 13.3658 11.545V13.0516C13.3658 13.1621 13.3219 13.2681 13.2437 13.3463C13.1656 13.4244 13.0596 13.4683 12.9491 13.4683H11.6932ZM16.059 9.01748C15.9485 9.01748 15.8426 8.9736 15.7645 8.89546C15.6863 8.81733 15.6424 8.71133 15.6424 8.60081V7.09416C15.6424 6.98365 15.6863 6.87765 15.7645 6.79951C15.8426 6.72138 15.9485 6.67749 16.059 6.67749H17.3158C17.4263 6.67749 17.5323 6.72138 17.6104 6.79951C17.6885 6.87765 17.7324 6.98365 17.7324 7.09416V8.60081C17.7324 8.71133 17.6885 8.81733 17.6104 8.89546C17.5323 8.9736 17.4263 9.01748 17.3158 9.01748H16.059ZM11.6932 9.01748C11.5827 9.01748 11.4768 8.9736 11.3986 8.89546C11.3205 8.81733 11.2766 8.71133 11.2766 8.60081V7.09416C11.2766 6.98365 11.3205 6.87765 11.3986 6.79951C11.4768 6.72138 11.5827 6.67749 11.6932 6.67749H12.9491C13.0596 6.67749 13.1656 6.72138 13.2437 6.79951C13.3219 6.87765 13.3658 6.98365 13.3658 7.09416V8.60081C13.3658 8.71133 13.3219 8.81733 13.2437 8.89546C13.1656 8.9736 13.0596 9.01748 12.9491 9.01748H11.6932Z" />
    </symbol>
    <symbol id="calendar-outline" viewBox="0 0 24 24" xmlns="http://www.w3.org/2000/svg">
        <path d="M17.4001 6.00001C17.241 6.00001 17.0883 5.93679 16.9757 5.82427C16.8633 5.71176 16.8001 5.55914 16.8001 5.40001C16.8001 5.24088 16.8633 5.08826 16.9757 4.97575C17.0883 4.86322 17.241 4.80001 17.4001 4.80001H18.6001C18.9714 4.80001 19.3274 4.94751 19.59 5.21006C19.8525 5.47261 20 5.82871 20 6.20002V18.6C20 18.9713 19.8525 19.3275 19.59 19.59C19.3274 19.8526 18.9714 20.0001 18.6001 20.0001H5.40001C5.0287 20.0001 4.6726 19.8526 4.41005 19.59C4.1475 19.3275 4 18.9713 4 18.6V6.20002C4 5.82871 4.1475 5.47261 4.41005 5.21006C4.6726 4.94751 5.0287 4.80001 5.40001 4.80001H6.60001C6.75914 4.80001 6.91175 4.86322 7.02427 4.97575C7.1368 5.08826 7.20001 5.24088 7.20001 5.40001C7.20001 5.55914 7.1368 5.71176 7.02427 5.82427C6.91175 5.93679 6.75914 6.00001 6.60001 6.00001H5.40001C5.34697 6.00001 5.29609 6.02108 5.25859 6.05859C5.22108 6.09609 5.2 6.14696 5.2 6.20002V18.6C5.2 18.6531 5.22108 18.704 5.25859 18.7415C5.29609 18.779 5.34697 18.8001 5.40001 18.8001H18.6001C18.6531 18.8001 18.704 18.779 18.7414 18.7415C18.779 18.704 18.8 18.6531 18.8 18.6V6.20002C18.8 6.14696 18.779 6.09609 18.7414 6.05859C18.704 6.02108 18.6531 6.00001 18.6001 6.00001H17.4001ZM11 6.00001C10.8409 6.00001 10.6883 5.93679 10.5758 5.82427C10.4632 5.71176 10.4 5.55914 10.4 5.40001C10.4 5.24088 10.4632 5.08826 10.5758 4.97575C10.6883 4.86322 10.8409 4.80001 11 4.80001H13C13.1592 4.80001 13.3118 4.86322 13.4243 4.97575C13.5368 5.08826 13.6 5.24088 13.6 5.40001C13.6 5.55914 13.5368 5.71176 13.4243 5.82427C13.3118 5.93679 13.1592 6.00001 13 6.00001H11ZM8.20001 4.6C8.20001 4.44088 8.26323 4.28826 8.37575 4.17574C8.48828 4.06322 8.64088 4 8.80002 4C8.95915 4 9.11176 4.06322 9.22429 4.17574C9.3368 4.28826 9.40002 4.44088 9.40002 4.6V6.60001C9.40002 6.75915 9.3368 6.91176 9.22429 7.02427C9.11176 7.1368 8.95915 7.20001 8.80002 7.20001C8.64088 7.20001 8.48828 7.1368 8.37575 7.02427C8.26323 6.91176 8.20001 6.75915 8.20001 6.60001V4.6ZM14.6 4.6C14.6 4.44088 14.6632 4.28826 14.7758 4.17574C14.8883 4.06322 15.0409 4 15.2 4C15.3592 4 15.5117 4.06322 15.6243 4.17574C15.7369 4.28826 15.8 4.44088 15.8 4.6V6.60001C15.8 6.75915 15.7369 6.91176 15.6243 7.02427C15.5117 7.1368 15.3592 7.20001 15.2 7.20001C15.0409 7.20001 14.8883 7.1368 14.7758 7.02427C14.6632 6.91176 14.6 6.75915 14.6 6.60001V4.6ZM8.40002 12C8.08175 12 7.77653 11.8736 7.55148 11.6486C7.32645 11.4235 7.20001 11.1183 7.20001 10.8C7.20001 10.4818 7.32645 10.1765 7.55148 9.95149C7.77653 9.72645 8.08175 9.60002 8.40002 9.60002C8.71828 9.60002 9.0235 9.72645 9.24855 9.95149C9.47359 10.1765 9.60002 10.4818 9.60002 10.8C9.60002 11.1183 9.47359 11.4235 9.24855 11.6486C9.0235 11.8736 8.71828 12 8.40002 12ZM8.40002 16C8.08175 16 7.77653 15.8736 7.55148 15.6486C7.32645 15.4235 7.20001 15.1183 7.20001 14.8C7.20001 14.4817 7.32645 14.1765 7.55148 13.9515C7.77653 13.7265 8.08175 13.6 8.40002 13.6C8.71828 13.6 9.0235 13.7265 9.24855 13.9515C9.47359 14.1765 9.60002 14.4817 9.60002 14.8C9.60002 15.1183 9.47359 15.4235 9.24855 15.6486C9.0235 15.8736 8.71828 16 8.40002 16ZM12 12C11.6818 12 11.3765 11.8736 11.1515 11.6486C10.9265 11.4235 10.8 11.1183 10.8 10.8C10.8 10.4818 10.9265 10.1765 11.1515 9.95149C11.3765 9.72645 11.6818 9.60002 12 9.60002C12.3183 9.60002 12.6235 9.72645 12.8486 9.95149C13.0736 10.1765 13.2 10.4818 13.2 10.8C13.2 11.1183 13.0736 11.4235 12.8486 11.6486C12.6235 11.8736 12.3183 12 12 12ZM12 16C11.6818 16 11.3765 15.8736 11.1515 15.6486C10.9265 15.4235 10.8 15.1183 10.8 14.8C10.8 14.4817 10.9265 14.1765 11.1515 13.9515C11.3765 13.7265 11.6818 13.6 12 13.6C12.3183 13.6 12.6235 13.7265 12.8486 13.9515C13.0736 14.1765 13.2 14.4817 13.2 14.8C13.2 15.1183 13.0736 15.4235 12.8486 15.6486C12.6235 15.8736 12.3183 16 12 16ZM15.6001 12C15.2818 12 14.9765 11.8736 14.7515 11.6486C14.5264 11.4235 14.4 11.1183 14.4 10.8C14.4 10.4818 14.5264 10.1765 14.7515 9.95149C14.9765 9.72645 15.2818 9.60002 15.6001 9.60002C15.9183 9.60002 16.2236 9.72645 16.4486 9.95149C16.6736 10.1765 16.8001 10.4818 16.8001 10.8C16.8001 11.1183 16.6736 11.4235 16.4486 11.6486C16.2236 11.8736 15.9183 12 15.6001 12ZM15.6001 16C15.2818 16 14.9765 15.8736 14.7515 15.6486C14.5264 15.4235 14.4 15.1183 14.4 14.8C14.4 14.4817 14.5264 14.1765 14.7515 13.9515C14.9765 13.7265 15.2818 13.6 15.6001 13.6C15.9183 13.6 16.2236 13.7265 16.4486 13.9515C16.6736 14.1765 16.8001 14.4817 16.8001 14.8C16.8001 15.1183 16.6736 15.4235 16.4486 15.6486C16.2236 15.8736 15.9183 16 15.6001 16Z" />
    </symbol>
    <symbol id="camera-outline" viewBox="0 0 24 24" xmlns="http://www.w3.org/2000/svg">
        <path d="M3.5 9.00001V18.0001C3.5 18.1327 3.55268 18.2599 3.64645 18.3536C3.74023 18.4474 3.8674 18.5 4.00002 18.5H20C20.1326 18.5 20.2598 18.4474 20.3536 18.3536C20.4473 18.2599 20.5 18.1327 20.5 18.0001V9.00001C20.5 8.8674 20.4473 8.74023 20.3536 8.64646C20.2598 8.55269 20.1326 8.50001 20 8.50001H17.75C17.1533 8.50001 16.5811 8.26295 16.1591 7.841C15.737 7.41904 15.5 6.84674 15.5 6.25001C15.5 6.05109 15.421 5.86032 15.2804 5.71967C15.1397 5.57901 14.949 5.5 14.75 5.5H9.25003C9.05112 5.5 8.86035 5.57901 8.71969 5.71967C8.57905 5.86032 8.50003 6.05109 8.50003 6.25001C8.50003 6.84674 8.26297 7.41904 7.84102 7.841C7.41905 8.26295 6.84676 8.50001 6.25002 8.50001H4.00002C3.8674 8.50001 3.74023 8.55269 3.64645 8.64646C3.55268 8.74023 3.5 8.8674 3.5 9.00001ZM6.25002 7.00001C6.44892 7.00001 6.63969 6.92099 6.78035 6.78033C6.92101 6.63968 7.00003 6.44891 7.00003 6.25001C7.00003 5.65326 7.23707 5.08096 7.65904 4.65901C8.08099 4.23705 8.65329 4 9.25003 4H14.75C15.3467 4 15.9191 4.23705 16.3411 4.65901C16.763 5.08096 17 5.65326 17 6.25001C17 6.44891 17.0791 6.63968 17.2198 6.78033C17.3603 6.92099 17.5511 7.00001 17.75 7.00001H20C20.5304 7.00001 21.0392 7.21072 21.4142 7.58579C21.7894 7.96087 22 8.46958 22 9.00001V18.0001C22 18.5305 21.7894 19.0391 21.4142 19.4143C21.0392 19.7893 20.5304 20 20 20H4.00002C3.46957 20 2.96087 19.7893 2.5858 19.4143C2.21072 19.0391 2 18.5305 2 18.0001V9.00001C2 8.46958 2.21072 7.96087 2.5858 7.58579C2.96087 7.21072 3.46957 7.00001 4.00002 7.00001H6.25002ZM12 17C11.2089 17 10.4355 16.7654 9.77775 16.3259C9.11995 15.8864 8.60725 15.2616 8.30451 14.5308C8.00176 13.7999 7.92254 12.9956 8.07688 12.2197C8.23123 11.4437 8.61219 10.731 9.1716 10.1716C9.73101 9.61218 10.4438 9.23121 11.2197 9.07687C11.9956 8.92252 12.7999 9.00174 13.5308 9.3045C14.2617 9.60724 14.8864 10.1199 15.3259 10.7777C15.7654 11.4355 16 12.2089 16 13C16 14.0609 15.5786 15.0783 14.8285 15.8285C14.0783 16.5787 13.0609 17 12 17ZM12 15.5C12.4945 15.5 12.9778 15.3534 13.389 15.0786C13.8001 14.804 14.1205 14.4136 14.3097 13.9567C14.499 13.4999 14.5485 12.9973 14.452 12.5123C14.3555 12.0273 14.1174 11.5819 13.7678 11.2322C13.4182 10.8826 12.9727 10.6445 12.4878 10.548C12.0028 10.4516 11.5001 10.5011 11.0433 10.6903C10.5865 10.8795 10.1961 11.2 9.92136 11.6111C9.64665 12.0222 9.50002 12.5056 9.50002 13C9.50002 13.6631 9.76342 14.299 10.2323 14.7678C10.7011 15.2366 11.337 15.5 12 15.5Z" />
    </symbol>
    <symbol id="card-outline" viewBox="0 0 24 24" xmlns="http://www.w3.org/2000/svg">
        <path d="M18.8044 4H5.19556C4.34725 4.00118 3.53412 4.33914 2.9349 4.93961C2.33568 5.54008 1.99941 6.35391 2 7.20222V16.0911C1.99941 16.9394 2.33568 17.7532 2.9349 18.3537C3.53412 18.9542 4.34725 19.2922 5.19556 19.2933H18.8044C19.6528 19.2922 20.4659 18.9542 21.0651 18.3537C21.6643 17.7532 22.0006 16.9394 22 16.0911V7.20222C22.0006 6.35391 21.6643 5.54008 21.0651 4.93961C20.4659 4.33914 19.6528 4.00118 18.8044 4ZM5.19556 5.00222H18.8044C19.093 5.00251 19.3786 5.05967 19.645 5.17041C19.9114 5.28116 20.1534 5.44332 20.3571 5.64764C20.5608 5.85196 20.7222 6.09442 20.8321 6.36117C20.9421 6.62791 20.9984 6.91371 20.9978 7.20222V7.27778H2.99778V7.20222C2.99719 6.91334 3.05363 6.62718 3.16384 6.36014C3.27405 6.0931 3.43588 5.85045 3.64005 5.64607C3.84422 5.44169 4.08672 5.27962 4.35364 5.16913C4.62057 5.05865 4.90667 5.00193 5.19556 5.00222ZM18.8044 18.2911H5.19556C4.90704 18.2908 4.62142 18.2337 4.35501 18.1229C4.0886 18.0122 3.84663 17.85 3.64293 17.6457C3.43923 17.4414 3.2778 17.1989 3.16786 16.9322C3.05792 16.6654 3.00164 16.3796 3.00222 16.0911V10.3133H21.0022V16.0911C21.0028 16.38 20.9464 16.6662 20.8362 16.9332C20.7259 17.2002 20.5641 17.4429 20.3599 17.6473C20.1558 17.8516 19.9133 18.0137 19.6464 18.1242C19.3794 18.2347 19.0933 18.2914 18.8044 18.2911Z" />
    </symbol>
    <symbol id="caret-down" viewBox="0 0 24 24" xmlns="http://www.w3.org/2000/svg">
        <path d="M11.9346 13.8667L17.4299 8.26667C17.5607 8.13333 17.8224 8 18.0841 8C18.3458 8 18.4766 8.13333 18.7383 8.26667C18.8692 8.4 19 8.66667 19 8.93333C19 9.2 18.8692 9.33333 18.7383 9.6L12.5888 15.7333C12.4579 15.8667 12.1963 16 11.9346 16C11.6729 16 11.5421 15.8667 11.4112 15.7333L5.26168 9.46667C5.13084 9.33333 5 9.06667 5 8.93333C5 8.66667 5.13084 8.53333 5.26168 8.26667C5.39252 8.13333 5.65421 8 5.91589 8C6.04673 8 6.30841 8.13333 6.43925 8.26667L11.9346 13.8667Z" />
    </symbol>
    <symbol id="caret-left" viewBox="0 0 24 24" xmlns="http://www.w3.org/2000/svg">
        <path d="M10.1333 11.9346L15.7333 17.4299C15.8667 17.5607 16 17.8224 16 18.0841C16 18.3458 15.8667 18.4766 15.7333 18.7383C15.6 18.8692 15.3333 19 15.0667 19C14.8 19 14.6667 18.8692 14.4 18.7383L8.26667 12.5888C8.13333 12.4579 8 12.1963 8 11.9346C8 11.6729 8.13333 11.5421 8.26667 11.4112L14.5333 5.26168C14.6667 5.13084 14.9333 5 15.0667 5C15.3333 5 15.4667 5.13084 15.7333 5.26168C15.8667 5.39252 16 5.65421 16 5.91589C16 6.04673 15.8667 6.30841 15.7333 6.43925L10.1333 11.9346Z" />
    </symbol>
    <symbol id="caret-right" viewBox="0 0 24 24" xmlns="http://www.w3.org/2000/svg">
        <path d="M13.8667 12.0654L8.26667 6.57009C8.13333 6.43925 8 6.17757 8 5.91589C8 5.65421 8.13333 5.52336 8.26667 5.26168C8.4 5.13084 8.66667 5 8.93333 5C9.2 5 9.33333 5.13084 9.6 5.26168L15.7333 11.4112C15.8667 11.5421 16 11.8037 16 12.0654C16 12.3271 15.8667 12.4579 15.7333 12.5888L9.46667 18.7383C9.33333 18.8692 9.06667 19 8.93333 19C8.66667 19 8.53333 18.8692 8.26667 18.7383C8.13333 18.6075 8 18.3458 8 18.0841C8 17.9533 8.13333 17.6916 8.26667 17.5607L13.8667 12.0654Z" />
    </symbol>
    <symbol width="caret-sort" height="24" viewBox="0 0 24 24" xmlns="http://www.w3.org/2000/svg">
        <path d="M12.0374 5.64762L8.8972 8.84762C8.82243 8.92381 8.6729 9 8.52336 9C8.37383 9 8.29907 8.92381 8.14953 8.84762C8.07477 8.77143 8 8.61905 8 8.46667C8 8.31428 8.07477 8.23809 8.14953 8.08571L11.6636 4.58095C11.7383 4.50476 11.8879 4.42857 12.0374 4.42857C12.1869 4.42857 12.2617 4.50476 12.3364 4.58095L15.8505 8.1619C15.9252 8.2381 16 8.39048 16 8.46667C16 8.61905 15.9252 8.69524 15.8505 8.84762C15.7757 8.92381 15.6262 9 15.4766 9C15.4019 9 15.2523 8.92381 15.1776 8.84762L12.0374 5.64762Z" />
        <path d="M11.9626 18.3524L15.1028 15.1524C15.1776 15.0762 15.3271 15 15.4766 15C15.6262 15 15.7009 15.0762 15.8505 15.1524C15.9252 15.2286 16 15.381 16 15.5333C16 15.6857 15.9252 15.7619 15.8505 15.9143L12.3364 19.419C12.2617 19.4952 12.1122 19.5714 11.9626 19.5714C11.8131 19.5714 11.7383 19.4952 11.6636 19.419L8.14953 15.8381C8.07477 15.7619 8 15.6095 8 15.5333C8 15.381 8.07477 15.3048 8.14953 15.1524C8.2243 15.0762 8.37383 15 8.52336 15C8.59813 15 8.74766 15.0762 8.82243 15.1524L11.9626 18.3524Z" />
    </symbol>
    <symbol id="caret-up" viewBox="0 0 24 24" xmlns="http://www.w3.org/2000/svg">
        <path d="M12.0654 10.1333L6.57009 15.7333C6.43925 15.8667 6.17757 16 5.91589 16C5.65421 16 5.52336 15.8667 5.26168 15.7333C5.13084 15.6 5 15.3333 5 15.0667C5 14.8 5.13084 14.6667 5.26168 14.4L11.4112 8.26667C11.5421 8.13333 11.8037 8 12.0654 8C12.3271 8 12.4579 8.13333 12.5888 8.26667L18.7383 14.5333C18.8692 14.6667 19 14.9333 19 15.0667C19 15.3333 18.8692 15.4667 18.7383 15.7333C18.6075 15.8667 18.3458 16 18.0841 16C17.9533 16 17.6916 15.8667 17.5607 15.7333L12.0654 10.1333Z" />
    </symbol>
    <symbol id="cart-outline" viewBox="0 0 24 24" xmlns="http://www.w3.org/2000/svg">
        <path d="M2.60288 4.17801C2.27825 4.17801 2 3.94241 2 3.61256C2 3.28272 2.27825 3 2.60288 3H4.87528C6.12741 3 7.14767 3.89529 7.37955 5.12041L7.61143 6.39266H21.4313C21.8487 6.39266 22.1269 6.86386 21.9414 7.24083L18.5097 14.6858C18.4169 14.8743 18.2314 15.0157 17.9995 15.0157H9.23457L9.37369 15.8167C9.51282 16.4764 10.0693 16.9476 10.7186 16.9476H18.2778C18.6024 16.9476 18.8807 17.2303 18.8807 17.5602C18.8807 17.89 18.6024 18.1727 18.2778 18.1727H10.7186C9.46644 18.1727 8.44618 17.2775 8.21431 16.0523L6.22016 5.35602C6.12741 4.64921 5.57091 4.17801 4.87528 4.17801H2.60288ZM7.8433 7.57067L9.00269 13.8377H17.6285L20.5038 7.57067H7.8433Z" />
        <path fill-rule="evenodd" clip-rule="evenodd" d="M10.1157 18.8796C10.6722 18.8796 11.136 19.3508 11.136 19.9162C11.136 20.5288 10.6722 21 10.1157 21C9.51283 21 9.04907 20.5288 9.04907 19.9162C9.04907 19.3508 9.51283 18.8796 10.1157 18.8796Z" />
        <path fill-rule="evenodd" clip-rule="evenodd" d="M17.3503 18.8796C17.9068 18.8796 18.3706 19.3508 18.3706 19.9162C18.3706 20.5288 17.9068 21 17.3503 21C16.7474 21 16.2837 20.5288 16.2837 19.9162C16.2837 19.3508 16.7474 18.8796 17.3503 18.8796Z" />
    </symbol>
    <symbol id="check" viewBox="0 0 24 24" xmlns="http://www.w3.org/2000/svg">
        <path fill-rule="evenodd" clip-rule="evenodd" d="M19.6401 8.95058L10.9039 17.6802C10.7076 17.8721 10.4131 18 10.0859 18C9.75869 18 9.49693 17.8721 9.26789 17.6802L4.3272 12.7558C4.13088 12.564 4 12.2762 4 11.9564C4 11.3169 4.52352 10.8052 5.14519 10.8052C5.47239 10.8052 5.73415 10.9331 5.96319 11.125L10.0859 15.25L18.0368 7.31977C18.2331 7.12791 18.5276 7 18.8548 7C19.4765 7 20 7.51163 20 8.15116C19.9673 8.47093 19.8364 8.75872 19.6401 8.95058Z" />
    </symbol>
    <symbol id="clock-outline" viewBox="0 0 24 24" xmlns="http://www.w3.org/2000/svg">
        <path d="M12 20.5001C13.6812 20.5001 15.3245 20.0015 16.7224 19.0676C18.1202 18.1335 19.2097 16.806 19.853 15.2529C20.4964 13.6997 20.6647 11.9906 20.3368 10.3418C20.0087 8.69293 19.1992 7.17836 18.0104 5.98961C16.8217 4.80087 15.3071 3.99131 13.6583 3.66334C12.0095 3.33536 10.3004 3.50369 8.74721 4.14704C7.19403 4.79038 5.86652 5.87985 4.93252 7.27768C3.99853 8.6755 3.50002 10.3189 3.50002 12C3.50002 14.2544 4.39555 16.4163 5.98961 18.0105C7.58368 19.6046 9.74569 20.5001 12 20.5001ZM12 22.0001C10.0222 22.0001 8.08882 21.4136 6.44432 20.3147C4.79982 19.2159 3.51809 17.6541 2.76122 15.8268C2.00433 13.9996 1.8063 11.989 2.19215 10.0491C2.57801 8.10931 3.53042 6.32748 4.92895 4.92895C6.32748 3.53042 8.10931 2.57801 10.0491 2.19215C11.989 1.8063 13.9996 2.00433 15.8269 2.76122C17.6542 3.51809 19.216 4.79982 20.3147 6.44432C21.4136 8.08882 22 10.0222 22 12C22 14.6522 20.9465 17.1957 19.0711 19.0712C17.1958 20.9465 14.6522 22.0001 12 22.0001ZM13 11H17C17.2652 11 17.5196 11.1054 17.7071 11.2929C17.8946 11.4805 18.0001 11.7348 18.0001 12C18.0001 12.2653 17.8946 12.5196 17.7071 12.7072C17.5196 12.8947 17.2652 13 17 13H12C11.7348 13 11.4805 12.8947 11.2929 12.7072C11.1054 12.5196 11 12.2653 11 12V7.00002C11 6.73481 11.1054 6.48045 11.2929 6.29292C11.4805 6.10538 11.7348 6.00002 12 6.00002C12.2653 6.00002 12.5196 6.10538 12.7072 6.29292C12.8947 6.48045 13 6.73481 13 7.00002V11Z" />
    </symbol>
    <symbol id="close" viewBox="0 0 24 24" xmlns="http://www.w3.org/2000/svg">
        <path d="M10.7608 12L5.24601 6.48515C5.08637 6.31987 4.99804 6.09851 5.00003 5.86873C5.00203 5.63895 5.09419 5.41915 5.25668 5.25668C5.41915 5.09419 5.63895 5.00203 5.86873 5.00003C6.09851 4.99804 6.31987 5.08637 6.48515 5.24601L12 10.7608L17.5148 5.24601C17.6801 5.08637 17.9014 4.99804 18.1312 5.00003C18.361 5.00203 18.5808 5.09419 18.7432 5.25668C18.9057 5.41915 18.998 5.63895 19 5.86873C19.0019 6.09851 18.9136 6.31987 18.754 6.48515L13.2391 12L18.754 17.5148C18.9136 17.6802 19.0019 17.9015 19 18.1313C18.998 18.3611 18.9057 18.5809 18.7432 18.7433C18.5808 18.9058 18.361 18.998 18.1312 18.9999C17.9014 19.0019 17.6801 18.9136 17.5148 18.754L12 13.2391L6.48515 18.754C6.31987 18.9136 6.09851 19.0019 5.86873 18.9999C5.63895 18.998 5.41915 18.9058 5.25668 18.7433C5.09419 18.5809 5.00203 18.3611 5.00003 18.1313C4.99804 17.9015 5.08637 17.6802 5.24601 17.5148L10.7608 12Z" />
    </symbol>
    <symbol id="cog-outline" viewBox="0 0 24 24" xmlns="http://www.w3.org/2000/svg">
        <path d="M19.6938 11.2112C19.3589 11.1861 19.0376 11.0683 18.7657 10.871C18.4939 10.6737 18.2822 10.4047 18.1545 10.094L17.7385 9.08081C17.5871 8.76355 17.5313 8.40912 17.578 8.06071C17.6245 7.7123 17.7712 7.38493 18.0006 7.11848L18.5227 6.53638L17.4635 5.48021L16.8844 5.9983C16.6304 6.2174 16.3205 6.36152 15.9894 6.4145C15.6581 6.46749 15.3188 6.42727 15.0091 6.29835L14.0089 5.87927C13.675 5.76384 13.3818 5.55388 13.165 5.27494C12.9482 4.996 12.8171 4.66008 12.7877 4.30802L12.7437 3.49788C12.3366 3.49788 11.6605 3.49788 11.2544 3.49788L11.2094 4.31901C11.1821 4.65169 11.0634 4.97033 10.8664 5.23984C10.6695 5.50933 10.4019 5.71918 10.0932 5.84627L9.08708 6.25834C8.77007 6.41206 8.41511 6.47 8.06569 6.42505C7.71627 6.3801 7.38753 6.23423 7.11974 6.0053L6.53665 5.48321L5.48047 6.53539L6.00556 7.12148C6.22227 7.37563 6.36436 7.6848 6.41609 8.01476C6.46782 8.34471 6.42715 8.68254 6.2986 8.9908L5.87654 10.006C5.75839 10.3361 5.54731 10.6251 5.26871 10.838C4.9901 11.051 4.65587 11.1788 4.30627 11.2062L3.49513 11.2502C3.49513 11.6612 3.49513 12.3334 3.49513 12.7384L4.30327 12.7834C4.6384 12.8083 4.96002 12.9258 5.2322 13.123C5.50436 13.3201 5.71637 13.589 5.84452 13.8996L6.2566 14.9068C6.41028 15.2252 6.46774 15.5815 6.4219 15.9319C6.37606 16.2824 6.22893 16.612 5.99855 16.8801L5.47647 17.4622L6.53065 18.5184L7.11575 17.9933C7.36938 17.7754 7.67839 17.6322 8.00852 17.5792C8.33865 17.5262 8.677 17.5657 8.98605 17.6932L9.98622 18.1124C10.3199 18.2279 10.6126 18.4383 10.8285 18.7177C11.0443 18.9971 11.1739 19.3336 11.2014 19.6856L11.2464 20.4978C11.6465 20.4978 12.3276 20.4978 12.7357 20.4978L12.7807 19.6776C12.808 19.3444 12.927 19.0253 13.1246 18.7556C13.3221 18.4858 13.5905 18.2759 13.8999 18.1493L14.9 17.7382C15.2196 17.5836 15.5776 17.5259 15.9295 17.5726C16.2815 17.6191 16.612 17.7678 16.8804 18.0003L17.4625 18.5224L18.5186 17.4682L18.0006 16.8852C17.7813 16.631 17.6371 16.3209 17.584 15.9895C17.531 15.6581 17.5714 15.3186 17.7006 15.0088L18.1446 13.9376C18.2686 13.6199 18.4796 13.3436 18.7534 13.1403C19.0272 12.9371 19.3528 12.8151 19.6929 12.7884L20.505 12.7434C20.505 12.3384 20.505 11.6622 20.505 11.2552L19.6938 11.2112ZM20.9801 9.77894C21.2296 9.79748 21.4656 9.90002 21.6494 10.0699C21.8332 10.2397 21.9541 10.4668 21.9922 10.7141C22.0033 10.8001 22.0033 13.1995 21.9922 13.2835C21.9554 13.5315 21.8351 13.7596 21.651 13.9298C21.4669 14.1001 21.2302 14.2023 20.9801 14.2197L19.7729 14.2867C19.7203 14.2984 19.6716 14.3228 19.6306 14.3576C19.5897 14.3925 19.5579 14.4368 19.5378 14.4867L19.0767 15.5999C19.0614 15.646 19.0568 15.695 19.0632 15.7432C19.0695 15.7914 19.0869 15.8374 19.1138 15.8779L19.9209 16.7781C20.089 16.9752 20.1806 17.2259 20.1796 17.4848C20.1785 17.7438 20.0846 17.9937 19.9149 18.1894L18.1596 19.9417C17.9634 20.1008 17.7172 20.1857 17.4646 20.1814C17.2119 20.177 16.9689 20.0836 16.7784 19.9177L15.8782 19.1125C15.8321 19.0837 15.7796 19.0666 15.7255 19.0627C15.6712 19.0589 15.6169 19.0684 15.5672 19.0906L14.457 19.5486C14.4132 19.5705 14.3751 19.602 14.3453 19.6409C14.3155 19.6797 14.2949 19.7247 14.2849 19.7726L14.2189 20.9788C14.2008 21.2284 14.0985 21.4644 13.9288 21.6482C13.7591 21.8321 13.5321 21.9529 13.2848 21.991C13.1988 22.003 10.7974 22.003 10.7123 21.991C10.4649 21.9532 10.2376 21.8324 10.0677 21.6485C9.89781 21.4646 9.79538 21.2284 9.77719 20.9788L9.71018 19.7717C9.69858 19.719 9.67429 19.67 9.63942 19.6289C9.60457 19.5876 9.56018 19.5556 9.51015 19.5355L8.39896 19.0756C8.35279 19.0606 8.30386 19.0561 8.25574 19.0625C8.20761 19.0688 8.16156 19.0859 8.12091 19.1125L7.22076 19.9196C7.02393 20.0879 6.77321 20.18 6.51421 20.1791C6.25522 20.1782 6.00516 20.0843 5.80952 19.9146L4.05523 18.1583C3.89642 17.9621 3.81177 17.7162 3.81617 17.4638C3.82056 17.2115 3.9137 16.9686 4.07924 16.7781L4.88637 15.8779C4.91513 15.8319 4.93219 15.7794 4.93602 15.7252C4.93986 15.6709 4.93036 15.6166 4.90837 15.5669L4.45029 14.4567C4.42812 14.4133 4.39648 14.3753 4.35771 14.3457C4.31893 14.3161 4.27402 14.2956 4.22626 14.2857L3.01905 14.2197C2.76943 14.2013 2.53341 14.0988 2.34957 13.929C2.16571 13.7591 2.04491 13.5319 2.00688 13.2845C1.99788 13.1995 1.99788 10.7991 2.00589 10.7141C2.0443 10.4667 2.16535 10.2396 2.34933 10.0698C2.5333 9.89995 2.76937 9.79744 3.01905 9.77894L4.22626 9.71293C4.27876 9.70092 4.32759 9.6765 4.36867 9.64168C4.40974 9.60687 4.44186 9.56271 4.4623 9.51288L4.92238 8.39871C4.93764 8.3528 4.94232 8.30403 4.93609 8.25606C4.92985 8.20808 4.91285 8.16213 4.88637 8.12165L4.07924 7.2215C3.9104 7.02518 3.81755 6.77482 3.81755 6.51589C3.81755 6.25695 3.9104 6.00659 4.07924 5.81026L5.84053 4.05597C6.03659 3.89723 6.2823 3.81263 6.5345 3.81703C6.78673 3.82141 7.02935 3.91452 7.21976 4.07998L8.11991 4.88711C8.16585 4.91587 8.21813 4.93293 8.27219 4.93677C8.32625 4.9406 8.38043 4.9311 8.42997 4.90912L9.54015 4.45104C9.58364 4.42892 9.6216 4.39731 9.6512 4.35853C9.68082 4.31973 9.70131 4.27479 9.71118 4.227L9.77719 3.0208C9.79556 2.7709 9.89816 2.53464 10.0682 2.35061C10.2382 2.16657 10.4657 2.04567 10.7133 2.00764C10.7994 1.99763 13.1998 1.99763 13.2848 2.00663C13.5323 2.04487 13.7595 2.16587 13.9293 2.34989C14.0992 2.53389 14.2016 2.77005 14.2199 3.0198L14.2859 4.226C14.2979 4.27852 14.3223 4.3274 14.3571 4.36849C14.3919 4.40958 14.4361 4.44167 14.486 4.46205L15.5992 4.92312C15.6451 4.93808 15.6937 4.94252 15.7414 4.93611C15.7892 4.92971 15.835 4.91262 15.8752 4.88611L16.7754 4.07897C16.9723 3.91084 17.223 3.81887 17.482 3.81979C17.7409 3.8207 17.9909 3.91444 18.1866 4.08398L19.9389 5.84027C20.098 6.0364 20.1826 6.28232 20.1782 6.53476C20.1739 6.78721 20.0806 7.03003 19.9149 7.2205L19.1087 8.12065C19.0797 8.16665 19.0625 8.21908 19.0584 8.27331C19.0544 8.32755 19.0638 8.38193 19.0857 8.43171L19.5438 9.5419C19.5658 9.58548 19.5975 9.62351 19.6362 9.65313C19.675 9.68276 19.72 9.70319 19.7679 9.71293L20.9801 9.77894ZM11.9996 15.4999C11.3072 15.4999 10.6304 15.2946 10.0547 14.9099C9.47906 14.5253 9.0304 13.9786 8.76544 13.3389C8.50049 12.6993 8.43117 11.9954 8.56623 11.3164C8.7013 10.6373 9.0347 10.0136 9.52426 9.52401C10.0138 9.03445 10.6376 8.70105 11.3166 8.56598C11.9957 8.43092 12.6995 8.50023 13.3392 8.76519C13.9788 9.03013 14.5255 9.47881 14.9102 10.0545C15.2949 10.6301 15.5001 11.307 15.5001 11.9993C15.5001 12.9277 15.1314 13.8181 14.4749 14.4746C13.8184 15.1311 12.928 15.4999 11.9996 15.4999ZM11.9996 13.9996C12.3952 13.9996 12.7819 13.8823 13.1109 13.6625C13.4398 13.4427 13.6962 13.1303 13.8476 12.7648C13.999 12.3993 14.0386 11.9971 13.9615 11.6091C13.8843 11.221 13.6938 10.8646 13.414 10.5849C13.1343 10.3051 12.7778 10.1146 12.3898 10.0374C12.0018 9.96023 11.5996 9.99983 11.2341 10.1512C10.8686 10.3026 10.5561 10.559 10.3363 10.888C10.1165 11.2169 9.99923 11.6037 9.99923 11.9993C9.99923 12.5298 10.21 13.0386 10.5851 13.4137C10.9602 13.7889 11.469 13.9996 11.9996 13.9996Z" />
    </symbol>
    <symbol id="currency" viewBox="0 0 24 24" xmlns="http://www.w3.org/2000/svg">
        <path fill-rule="evenodd" clip-rule="evenodd" d="M13.5776 7.4594C13.8923 7.77158 14.1097 8.27015 14.194 8.9947L14.2041 9.21546H16.1187L16.1066 8.95389C16.0542 7.82382 15.6776 6.91056 14.9605 6.24009C14.4317 5.74836 13.7733 5.44094 12.9933 5.30895V3.75H11.0505V5.36417C10.3908 5.5073 9.81044 5.80567 9.31261 6.25767C8.56173 6.93682 8.18922 7.8168 8.18922 8.87532C8.18922 9.79767 8.47996 10.5799 9.07553 11.2004C9.66245 11.8136 10.5329 12.2608 11.6579 12.5576C12.6831 12.8273 13.3741 13.1447 13.7685 13.4931C14.1456 13.8335 14.3387 14.2857 14.3387 14.8773C14.3387 15.6121 14.1276 16.1548 13.7317 16.5392C13.3346 16.9239 12.7696 17.1326 12.0034 17.1326C11.2367 17.1326 10.6768 16.924 10.2899 16.5411C9.90231 16.1571 9.68763 15.6013 9.67543 14.8356L9.67151 14.5896H7.78622L7.75 15.141L7.75008 15.1503C7.75845 16.0931 8.15242 16.9297 8.91465 17.6546L8.91578 17.6557C9.53541 18.2376 10.2485 18.6129 11.0508 18.7791V20.6277H12.9937V18.7747C13.7932 18.6239 14.4805 18.2812 15.0445 17.7455C15.8513 16.9857 16.2501 16.0111 16.2501 14.8399C16.2501 13.8651 15.9243 13.0371 15.2698 12.3758C14.6134 11.7153 13.6389 11.2276 12.3693 10.8943C11.4851 10.66 10.9039 10.3847 10.5813 10.0823C10.266 9.78618 10.0971 9.38272 10.0971 8.84877C10.0971 8.2377 10.2827 7.79048 10.6273 7.47581C10.9745 7.1569 11.4702 6.98235 12.1533 6.98235C12.8054 6.98235 13.2672 7.15381 13.5776 7.4594ZM15.8568 8.96546H15.8568C15.8529 8.88069 15.8471 8.79736 15.8394 8.71546C15.749 7.75564 15.3989 6.99227 14.7902 6.42316C14.4568 6.11311 14.0658 5.88015 13.6162 5.72379C14.0658 5.88015 14.4568 6.11312 14.7902 6.42316C15.4508 7.04083 15.8068 7.88733 15.8568 8.96546ZM12.7433 5.52496V4H12.7433V5.52496C12.7433 5.52496 12.7433 5.52495 12.7433 5.52496ZM10.4582 7.29167C10.6105 7.15175 10.785 7.03812 10.9817 6.95073C10.7849 7.03812 10.6105 7.15174 10.4581 7.29167C10.0511 7.66339 9.84707 8.18324 9.84707 8.84877C9.84707 9.44094 10.0371 9.91432 10.4102 10.2647C10.6232 10.4644 10.9234 10.6448 11.3114 10.8073C10.9235 10.6448 10.6232 10.4643 10.4103 10.2647C10.0372 9.91432 9.84714 9.44094 9.84714 8.84877C9.84714 8.18324 10.0512 7.66339 10.4582 7.29167ZM12.1408 11.091C12.1947 11.1062 12.2496 11.1212 12.3055 11.136C12.3055 11.136 12.3056 11.136 12.3056 11.136C12.2496 11.1212 12.1947 11.1062 12.1408 11.091ZM13.5731 11.565C14.2029 11.8372 14.709 12.1662 15.0924 12.552C15.6975 13.1634 16 13.9264 16 14.8399C16 15.9481 15.6255 16.8551 14.8726 17.5639C14.5322 17.8873 14.1433 18.1363 13.7067 18.3105C14.1433 18.1363 14.5323 17.8873 14.8727 17.5639C15.6256 16.8551 16.0001 15.9481 16.0001 14.8399C16.0001 13.9264 15.6975 13.1634 15.0924 12.552C14.709 12.1662 14.2029 11.8372 13.5731 11.565ZM12.7437 18.5627C12.7437 18.5627 12.7436 18.5627 12.7436 18.5627V20.3777H12.7437V18.5627ZM9.42539 14.8396C9.43832 15.6508 9.6675 16.2765 10.114 16.7188C10.3105 16.9133 10.5428 17.0652 10.8107 17.1744C10.5428 17.0652 10.3105 16.9133 10.1141 16.7188C9.66757 16.2765 9.43839 15.6508 9.42546 14.8396H9.42539ZM11.8532 17.38C11.9025 17.3817 11.9526 17.3826 12.0033 17.3826C12.0033 17.3826 12.0034 17.3826 12.0034 17.3826C11.9526 17.3826 11.9025 17.3817 11.8532 17.38Z" />
    </symbol>
    <symbol id="currency-outline" viewBox="0 0 24 24" xmlns="http://www.w3.org/2000/svg">
        <path fill-rule="evenodd" clip-rule="evenodd" d="M22 12C22 17.5228 17.5228 22 12 22C6.47715 22 2 17.5228 2 12C2 6.47715 6.47715 2 12 2C17.5228 2 22 6.47715 22 12ZM12 20.5C16.6944 20.5 20.5 16.6944 20.5 12C20.5 7.30558 16.6944 3.5 12 3.5C7.30558 3.5 3.5 7.30558 3.5 12C3.5 16.6944 7.30558 20.5 12 20.5ZM13.2905 10.0851C13.2409 9.65889 13.1131 9.36561 12.928 9.18198C12.7454 9.00222 12.4737 8.90136 12.0901 8.90136C11.6883 8.90136 11.3968 9.00404 11.1925 9.19163C10.9898 9.37673 10.8807 9.6398 10.8807 9.99925C10.8807 10.3133 10.98 10.5507 11.1655 10.7249C11.3552 10.9028 11.6971 11.0647 12.2172 11.2025C12.964 11.3985 13.5372 11.6854 13.9234 12.0739C14.3084 12.463 14.5 12.95 14.5 13.5234C14.5 14.2123 14.2654 14.7856 13.7908 15.2326C13.4591 15.5477 13.0548 15.7493 12.5845 15.838V16.9279H11.4416V15.8406C10.9697 15.7428 10.5502 15.5221 10.1857 15.1797L10.1851 15.1791C9.73672 14.7527 9.50497 14.2606 9.50005 13.706L9.5 13.7005L9.5213 13.3762H10.6303L10.6326 13.5209C10.6398 13.9713 10.7661 14.2982 10.9941 14.5241C11.2216 14.7494 11.551 14.872 12.002 14.872C12.4527 14.872 12.785 14.7493 13.0186 14.523C13.2515 14.2969 13.3756 13.9777 13.3756 13.5454C13.3756 13.1974 13.2621 12.9314 13.0402 12.7312C12.8083 12.5262 12.4018 12.3395 11.7987 12.1809C11.137 12.0063 10.625 11.7433 10.2797 11.3825C9.92939 11.0176 9.75836 10.5574 9.75836 10.0149C9.75836 9.39221 9.97748 8.87459 10.4192 8.47509C10.712 8.20921 11.0534 8.0337 11.4414 7.94951V7H12.5843V7.91702C13.0431 7.99466 13.4304 8.17549 13.7414 8.46475C14.1633 8.85914 14.3848 9.39635 14.4156 10.0611L14.4227 10.2149H13.2965L13.2905 10.0851ZM11.093 9.08332C11.2952 8.89766 11.5634 8.79068 11.8996 8.76211C11.5633 8.79066 11.2951 8.89765 11.0929 9.08333C10.8535 9.30198 10.7335 9.60777 10.7335 9.99926C10.7335 10.3476 10.8453 10.626 11.0647 10.8322C11.2818 11.0356 11.6529 11.2052 12.1796 11.3447C12.9124 11.537 13.458 11.8145 13.8189 12.1776C14.1748 12.5372 14.3528 12.9861 14.3528 13.5235C14.3528 14.1753 14.1325 14.7088 13.6897 15.1258C13.3524 15.4461 12.9342 15.6424 12.4373 15.7133V16.7809L12.4374 16.7809V15.7133C12.9343 15.6424 13.3525 15.4461 13.6898 15.1258C14.1326 14.7088 14.3529 14.1753 14.3529 13.5234C14.3529 12.9861 14.175 12.5372 13.819 12.1776C13.4582 11.8145 12.9126 11.537 12.1797 11.3447C11.653 11.2052 11.2819 11.0356 11.0649 10.8322C10.8454 10.626 10.7336 10.3476 10.7336 9.99925C10.7336 9.60777 10.8536 9.30198 11.093 9.08332ZM10.8905 14.6287C10.6278 14.3685 10.493 14.0004 10.4854 13.5232L10.4856 13.5232C10.4932 14.0004 10.628 14.3685 10.8906 14.6286C11.153 14.8884 11.524 15.0191 12.002 15.0191L12.0018 15.0191C11.5238 15.0191 11.1529 14.8884 10.8905 14.6287ZM12.4371 8.04409V7.14706L12.4372 7.14706V8.04408C12.9269 8.10491 13.3275 8.28062 13.6413 8.57244C13.9993 8.9072 14.2053 9.35624 14.2584 9.92083C14.263 9.96901 14.2664 10.018 14.2687 10.0679H14.2686C14.2392 9.43371 14.0298 8.93577 13.6412 8.57244C13.3273 8.28063 12.9268 8.10492 12.4371 8.04409Z" />
    </symbol>
    <symbol id="edit-outline" viewBox="0 0 24 24" xmlns="http://www.w3.org/2000/svg">
        <path d="M15.1994 9.64937L10.6237 14.2251C10.5679 14.281 10.5018 14.3253 10.4289 14.3555C10.3561 14.3858 10.278 14.4014 10.1991 14.4014C10.1202 14.4016 10.0421 14.3861 9.96913 14.356C9.89622 14.3259 9.82996 14.2817 9.77412 14.2259C9.71828 14.1702 9.67397 14.104 9.64372 14.0312C9.61346 13.9583 9.59784 13.8802 9.59777 13.8013C9.5977 13.7224 9.61317 13.6443 9.64329 13.5714C9.67341 13.4985 9.71759 13.4322 9.77332 13.3764L14.3491 8.8006L13.2715 7.72306L6.95346 14.0004H8.39979V15.6003H9.9997V17.0402L16.2738 10.7253L15.1994 9.64937ZM14.1227 6.8807L17.1193 9.87496L18.5296 8.45502C18.6157 8.3689 18.6836 8.2664 18.7293 8.15358C18.7751 8.04076 18.7977 7.91992 18.7959 7.7982C18.7941 7.67647 18.7679 7.55635 18.719 7.44492C18.6699 7.3335 18.599 7.23304 18.5104 7.14949L16.8305 5.46957C16.7462 5.38465 16.6457 5.31726 16.5351 5.27128C16.4246 5.22528 16.3059 5.20162 16.1862 5.20162C16.0664 5.20162 15.9478 5.22528 15.8373 5.27128C15.7267 5.31726 15.6263 5.38465 15.5418 5.46957L14.1227 6.8807ZM5.88552 15.2002L5.55433 17.5569L6.44148 18.4442L8.79976 18.1121V16.8002H7.19985V15.2002H5.88552ZM19.3593 6.30153C19.5592 6.49648 19.7185 6.72918 19.8279 6.98614C19.9372 7.2431 19.9945 7.51922 19.9963 7.79847C19.9982 8.07773 19.9446 8.35459 19.8387 8.61298C19.7327 8.87138 19.5766 9.10618 19.3792 9.30379L9.52614 19.2217L4 20L4.77597 14.4715L14.6955 4.61841C14.8913 4.42237 15.1237 4.26684 15.3797 4.16073C15.6356 4.05462 15.9099 4 16.187 4C16.4641 4 16.7384 4.05462 16.9943 4.16073C17.2503 4.26684 17.4828 4.42237 17.6785 4.61841L19.3593 6.30153Z" />
    </symbol>
    <symbol id="eye-outline" viewBox="0 0 24 24" xmlns="http://www.w3.org/2000/svg">
        <path d="M11.9998 16.4677C13.6728 16.4923 15.3253 16.0966 16.8057 15.317C18.2862 14.5375 19.5474 13.3989 20.474 12.0056C19.5503 10.6064 18.2907 9.46107 16.8105 8.67409C15.3301 7.88709 13.6762 7.48362 11.9998 7.50048C10.3233 7.48362 8.66938 7.88709 7.18905 8.67409C5.70873 9.46107 4.4492 10.6064 3.52556 12.0056C4.452 13.3989 5.71324 14.5375 7.19375 15.317C8.67427 16.0966 10.3267 16.4923 11.9998 16.4677ZM11.9998 6.00044C13.9422 5.98346 15.8575 6.45746 17.5677 7.37843C19.278 8.29941 20.728 9.63751 21.7829 11.2686C21.9247 11.4886 22 11.7448 22 12.0066C22 12.2683 21.9247 12.5245 21.7829 12.7446C20.7253 14.3698 19.2735 15.701 17.563 16.6142C15.8524 17.5275 13.9387 17.9931 11.9998 17.9677C10.0608 17.9929 8.14693 17.527 6.43638 16.6136C4.72583 15.7003 3.27417 14.3689 2.21653 12.7436C2.07517 12.5234 2 12.2673 2 12.0056C2 11.7439 2.07517 11.4878 2.21653 11.2676C3.2717 9.63676 4.72171 8.2989 6.43199 7.37812C8.14227 6.45732 10.0574 5.98345 11.9998 6.00044ZM11.9998 13.5056C12.2964 13.5056 12.5864 13.4176 12.8331 13.2528C13.0798 13.088 13.2721 12.8537 13.3856 12.5796C13.4991 12.3055 13.5288 12.0039 13.471 11.7129C13.4131 11.422 13.2702 11.1547 13.0604 10.9449C12.8506 10.7351 12.5834 10.5923 12.2924 10.5344C12.0014 10.4765 11.6998 10.5062 11.4257 10.6197C11.1516 10.7333 10.9173 10.9255 10.7525 11.1722C10.5877 11.4189 10.4997 11.7089 10.4997 12.0056C10.4997 12.4034 10.6578 12.785 10.9391 13.0663C11.2204 13.3476 11.6019 13.5056 11.9998 13.5056ZM11.9998 15.0056C11.4064 15.0056 10.8264 14.8297 10.333 14.5001C9.83964 14.1704 9.45511 13.7019 9.22805 13.1537C9.00098 12.6055 8.94157 12.0023 9.05733 11.4203C9.17309 10.8384 9.45881 10.3038 9.87837 9.88421C10.2979 9.46465 10.8325 9.17892 11.4145 9.06317C11.9964 8.94741 12.5996 9.00681 13.1478 9.23389C13.696 9.46095 14.1646 9.84548 14.4942 10.3388C14.8239 10.8322 14.9998 11.4122 14.9998 12.0056C14.9998 12.8013 14.6837 13.5643 14.1211 14.127C13.5585 14.6896 12.7954 15.0056 11.9998 15.0056Z" />
    </symbol>
    <symbol id="facebook-fill" viewBox="0 0 24 24" xmlns="http://www.w3.org/2000/svg">
        <path d="M9 9.96934H10.1868V9.4082V8.85627V8.76428C10.1868 8.23534 10.2 7.41204 10.5692 6.90609C10.956 6.36336 11.4923 6 12.411 6C13.9055 6 14.5385 6.22077 14.5385 6.22077L14.2396 8.06056C14.2396 8.06056 13.7473 7.90878 13.2813 7.90878C12.8154 7.90878 12.4066 8.08356 12.4066 8.5619V8.75968V9.4036V9.96474H14.2967L14.1648 11.7585H12.4066V18H10.1868V11.7677H9V9.96934Z" />
    </symbol>
    <symbol id="frown-outline" viewBox="0 0 24 24" xmlns="http://www.w3.org/2000/svg">
        <path fill-rule="evenodd" clip-rule="evenodd" d="M12 1.75C6.34579 1.75 1.75 6.34579 1.75 12C1.75 17.6542 6.34579 22.25 12 22.25C17.6542 22.25 22.25 17.6542 22.25 12C22.25 6.34579 17.6542 1.75 12 1.75ZM12 3.46331C16.7214 3.46331 20.5367 7.2786 20.5367 12C20.5367 16.7214 16.7214 20.5367 12 20.5367C7.2786 20.5367 3.46331 16.7214 3.46331 12C3.46331 7.2786 7.2786 3.46331 12 3.46331ZM8.87783 7.97223C8.15125 7.97223 7.55005 8.57342 7.55005 9.30001C7.55005 10.0266 8.15125 10.6278 8.87783 10.6278C9.6044 10.6278 10.2056 10.0266 10.2056 9.30001C10.2056 8.57342 9.6044 7.97223 8.87783 7.97223ZM15.1222 7.97223C14.3956 7.97223 13.7944 8.57342 13.7944 9.30001C13.7944 10.0266 14.3956 10.6278 15.1222 10.6278C15.8488 10.6278 16.45 10.0266 16.45 9.30001C16.45 8.57342 15.8488 7.97223 15.1222 7.97223ZM11.9995 13.2424C10.0834 13.2462 8.14875 14.1214 7.005 15.8985C6.74747 16.2986 6.74165 16.907 7.21638 17.1777C7.67364 17.4384 8.17742 17.238 8.43169 16.8474C9.23039 15.6203 10.6085 15.0005 12.0006 14.9971C13.3916 14.9936 14.7695 15.6131 15.5682 16.8402C15.8197 17.2266 16.3224 17.4406 16.7835 17.1776C17.2587 16.9067 17.2521 16.2909 16.9949 15.8913C15.8512 14.1143 13.9163 13.2387 11.9995 13.2424Z" />
    </symbol>
    <symbol id="globe-outline" viewBox="0 0 24 24" xmlns="http://www.w3.org/2000/svg">
        <path fill-rule="evenodd" clip-rule="evenodd" d="M5.99133 5.18311C6.06629 5.22883 6.14173 5.27357 6.21764 5.31734C6.14173 5.27357 6.06629 5.22883 5.99133 5.18311ZM9.04187 4.27423C8.69978 4.7148 8.33921 5.24759 8.00004 5.87167C7.45338 5.67303 6.92688 5.43136 6.42162 5.14591C7.3835 4.36171 8.51199 3.77558 9.74515 3.45006C9.51614 3.6946 9.27912 3.96885 9.04187 4.27423ZM13.8464 5.13765C14.0962 5.45901 14.3577 5.83822 14.6108 6.27338C13.9968 6.40777 13.3606 6.49282 12.7031 6.52817V3.89102C13.049 4.20977 13.4469 4.62325 13.8464 5.13765ZM22.25 12.1724C22.25 12.1495 22.2476 12.1302 22.2464 12.1207L22.2471 12.0985C22.248 12.0669 22.2493 12.0256 22.2493 12C22.2493 9.20532 21.1242 6.6695 19.3054 4.81936C19.2702 4.77453 19.2314 4.73673 19.1911 4.70462C17.34 2.87936 14.7997 1.75 11.9998 1.75C9.19723 1.75 6.65443 2.88164 4.80274 4.70982C4.76725 4.73891 4.73429 4.7717 4.70417 4.80862C2.87951 6.65961 1.75 9.20006 1.75 12C1.75 12.0261 1.75137 12.0699 1.75241 12.1036L1.7532 12.1295C1.75204 12.1387 1.75044 12.1543 1.75044 12.1722C1.75044 12.1954 1.7525 12.2152 1.75409 12.2282L1.75592 12.2421C1.81908 14.937 2.92542 17.3779 4.68797 19.1737C4.72645 19.2241 4.76957 19.2652 4.81285 19.2991C6.66345 21.1214 9.2016 22.2491 11.9986 22.2493H11.9998C14.7991 22.2493 17.339 21.1203 19.1901 19.2959C19.231 19.2636 19.2715 19.2247 19.3081 19.1775C21.0689 17.385 22.1756 14.9492 22.2429 12.2593C22.2458 12.2395 22.25 12.2065 22.25 12.1724ZM14.7395 6.50087C14.8239 6.4818 14.9079 6.46181 14.9916 6.44089C14.9079 6.46181 14.8239 6.4818 14.7395 6.50087ZM21.9944 12.2308L21.9944 12.2307C21.997 12.2127 21.9996 12.1946 22 12.1761M2.00556 12.2231L2.00382 12.2098C2.00442 12.2142 2.00503 12.2186 2.00556 12.2231ZM5.36417 6.16289C6.01091 6.55923 6.68918 6.89039 7.39678 7.15631C6.91962 8.35044 6.56779 9.78688 6.50528 11.4684H3.1755C3.29619 9.4419 4.10097 7.59721 5.36417 6.16289ZM6.51938 12.8751H3.20259C3.3892 14.7661 4.17275 16.4839 5.36392 17.8364C6.01069 17.4399 6.68912 17.1087 7.39674 16.843C6.95221 15.7312 6.61417 14.4102 6.51938 12.8751ZM6.21743 18.682C6.14152 18.7258 6.06608 18.7705 5.99111 18.8162C6.06608 18.7705 6.14152 18.7258 6.21743 18.682ZM9.74601 20.55C8.51224 20.2245 7.38335 19.6382 6.42136 18.8535C6.92668 18.5681 7.45324 18.3263 8.00004 18.1276C8.33921 18.7517 8.69981 19.2846 9.04214 19.7252C9.27959 20.0308 9.51678 20.3052 9.74601 20.55ZM9.38499 17.7269C10.0002 17.592 10.6376 17.5066 11.2964 17.4711V20.1064C10.9425 19.7805 10.5351 19.3571 10.1292 18.8308C9.85573 18.4759 9.60824 18.1075 9.38499 17.7269ZM11.2962 12.8753L11.2964 16.0555C10.4118 16.0983 9.55834 16.2225 8.73813 16.4266C8.2852 15.3298 8.01441 14.1439 7.92963 12.8753H11.2962ZM7.66511 12.6253C7.66899 12.709 7.67365 12.7923 7.67909 12.8753C7.67365 12.7923 7.66899 12.709 7.66511 12.6253ZM9.25538 17.4996C9.17089 17.5188 9.0868 17.5388 9.00311 17.5598C9.0868 17.5388 9.17089 17.5188 9.25538 17.4996ZM11.2964 11.4684H7.91186C7.96761 10.0696 8.24463 8.76825 8.73814 7.57295C9.55832 7.77704 10.4117 7.90131 11.2962 7.94402L11.2964 11.4684ZM7.65422 11.7184C7.65594 11.6348 7.65842 11.5515 7.66167 11.4684C7.65842 11.5515 7.65594 11.6348 7.65422 11.7184ZM11.5464 6.78933C11.4628 6.78651 11.3795 6.78292 11.2964 6.77854C11.3795 6.78292 11.4628 6.78651 11.5464 6.78933ZM9.38511 6.27264C10.0002 6.40746 10.6376 6.49279 11.2964 6.52819L11.2963 3.89299C10.9423 4.2188 10.5348 4.64226 10.1289 5.16886C9.85565 5.52375 9.60821 5.89206 9.38511 6.27264ZM17.7821 5.31751C17.858 5.27376 17.9335 5.22903 18.0084 5.18333C17.9335 5.22903 17.858 5.27376 17.7821 5.31751ZM14.2544 3.45009C15.4877 3.77568 16.6164 4.36173 17.5782 5.14605C17.0728 5.43144 16.5462 5.6732 15.9995 5.87172C15.6604 5.24762 15.2998 4.7148 14.9574 4.27419C14.7203 3.96891 14.4834 3.69468 14.2544 3.45009ZM9.25558 6.49991C9.17109 6.48078 9.08701 6.46074 9.00333 6.43978C9.08701 6.46074 9.17109 6.48078 9.25558 6.49991ZM15.2544 7.57472C14.4364 7.77794 13.5852 7.90157 12.7031 7.94406V11.4684H16.0867C16.0233 9.93659 15.6931 8.64053 15.2544 7.57472ZM16.3369 11.4684C16.3403 11.5511 16.3429 11.6344 16.3447 11.7184C16.3429 11.6344 16.3403 11.5511 16.3369 11.4684ZM12.7031 12.8751H16.0706C15.986 14.1439 15.7151 15.3298 15.2619 16.4266C14.4415 16.2223 13.5878 16.098 12.7031 16.0553V12.8751ZM12.7031 17.2208C12.6201 17.2164 12.5368 17.2128 12.4531 17.21C12.5368 17.2128 12.6201 17.2164 12.7031 17.2208ZM13.8709 18.8307C13.4648 19.3572 13.0572 19.7808 12.7031 20.1067V17.4711C13.3621 17.5066 13.9997 17.592 14.615 17.7269C14.3918 18.1075 14.1445 18.4758 13.8709 18.8307ZM18.0084 18.8162C17.9335 18.7705 17.8581 18.7258 17.7822 18.682C17.8581 18.7258 17.9335 18.7705 18.0084 18.8162ZM17.5783 18.8535C16.6163 19.6382 15.4874 20.2243 14.2539 20.5498C14.483 20.305 14.7201 20.0305 14.9574 19.7249C15.2996 19.2845 15.6602 18.7515 15.9995 18.1274C16.5463 18.3261 17.0729 18.5679 17.5783 18.8535ZM16.6026 16.8434C17.3104 17.1092 17.9888 17.4403 18.6356 17.8367C19.8268 16.484 20.6106 14.7661 20.7972 12.8753H17.4801C17.3852 14.4104 17.0473 15.7315 16.6026 16.8434ZM20.8241 11.4684H17.4941C17.4315 9.7869 17.0797 8.35048 16.6026 7.15636C17.3102 6.89058 17.9885 6.5594 18.6354 6.16291C19.8984 7.59723 20.7034 9.44175 20.8241 11.4684Z" />
    </symbol>
    <symbol id="graph" viewBox="0 0 24 24" xmlns="http://www.w3.org/2000/svg">
        <path d="M24 5V12.1507H22.3181V7.87316L13.6706 16.5207L9.01752 11.8704L1.18851 19.6994L0 18.5081L9.01752 9.49054L13.6706 14.1409L21.1268 6.68185H16.8521V5H24Z" />
    </symbol>
    <symbol id="grid-fill" viewBox="0 0 24 24" xmlns="http://www.w3.org/2000/svg">
        <path d="M7.16667 6H10.1667C10.4761 6 10.7728 6.12292 10.9916 6.34171C11.2104 6.5605 11.3333 6.85725 11.3333 7.16667V10.1667C11.3333 10.4761 11.2104 10.7728 10.9916 10.9916C10.7728 11.2104 10.4761 11.3333 10.1667 11.3333H7.16667C6.85725 11.3333 6.5605 11.2104 6.34171 10.9916C6.12292 10.7728 6 10.4761 6 10.1667V7.16667C6 6.85725 6.12292 6.5605 6.34171 6.34171C6.5605 6.12292 6.85725 6 7.16667 6ZM7.16667 12.6667H10.1667C10.4761 12.6667 10.7728 12.7896 10.9916 13.0084C11.2104 13.2272 11.3333 13.5239 11.3333 13.8333V16.8333C11.3333 17.1428 11.2104 17.4395 10.9916 17.6583C10.7728 17.8771 10.4761 18 10.1667 18H7.16667C6.85725 18 6.5605 17.8771 6.34171 17.6583C6.12292 17.4395 6 17.1428 6 16.8333V13.8333C6 13.5239 6.12292 13.2272 6.34171 13.0084C6.5605 12.7896 6.85725 12.6667 7.16667 12.6667ZM13.8333 6H16.8333C17.1428 6 17.4395 6.12292 17.6583 6.34171C17.8771 6.5605 18 6.85725 18 7.16667V10.1667C18 10.4761 17.8771 10.7728 17.6583 10.9916C17.4395 11.2104 17.1428 11.3333 16.8333 11.3333H13.8333C13.5239 11.3333 13.2272 11.2104 13.0084 10.9916C12.7896 10.7728 12.6667 10.4761 12.6667 10.1667V7.16667C12.6667 6.85725 12.7896 6.5605 13.0084 6.34171C13.2272 6.12292 13.5239 6 13.8333 6ZM13.8333 12.6667H16.8333C17.1428 12.6667 17.4395 12.7896 17.6583 13.0084C17.8771 13.2272 18 13.5239 18 13.8333V16.8333C18 17.1428 17.8771 17.4395 17.6583 17.6583C17.4395 17.8771 17.1428 18 16.8333 18H13.8333C13.5239 18 13.2272 17.8771 13.0084 17.6583C12.7896 17.4395 12.6667 17.1428 12.6667 16.8333V13.8333C12.6667 13.5239 12.7896 13.2272 13.0084 13.0084C13.2272 12.7896 13.5239 12.6667 13.8333 12.6667Z" />
    </symbol>
    <symbol id="home-outline" viewBox="0 0 24 24" xmlns="http://www.w3.org/2000/svg">
        <path d="M6.46233 12.5105V19.0058C6.46233 19.1384 6.51503 19.2657 6.60883 19.3595C6.70263 19.4532 6.82986 19.5059 6.96252 19.5059H8.97924C9.11189 19.5059 9.23912 19.4532 9.33292 19.3595C9.42672 19.2657 9.47942 19.1384 9.47942 19.0058V15.7586C9.47994 15.5939 9.51291 15.4309 9.57646 15.279C9.63999 15.127 9.73286 14.9891 9.84972 14.8731C9.9666 14.7571 10.1052 14.6652 10.2576 14.6028C10.41 14.5403 10.5732 14.5085 10.7379 14.5092H13.2548C13.4195 14.5085 13.5827 14.5403 13.7351 14.6028C13.8874 14.6652 14.026 14.7571 14.1429 14.8731C14.2598 14.9891 14.3526 15.127 14.4162 15.279C14.4797 15.4309 14.5127 15.5939 14.5132 15.7586V19.0068C14.5132 19.1395 14.5659 19.2667 14.6597 19.3605C14.7535 19.4543 14.8807 19.507 15.0134 19.507H17.0381C17.1708 19.507 17.298 19.4543 17.3918 19.3605C17.4856 19.2667 17.5382 19.1395 17.5382 19.0068V12.5105H19.8641L12.9367 4.90774C12.9086 4.87705 12.879 4.84772 12.8476 4.8197C12.5994 4.59737 12.2735 4.48192 11.9407 4.49841C11.6079 4.51488 11.295 4.66197 11.07 4.90774L4.1335 12.5105H6.46233ZM4.9518 14.011H3.0031C2.80949 14.0115 2.61988 13.9559 2.45728 13.8507C2.29468 13.7456 2.16609 13.5956 2.08708 13.4188C2.00806 13.2421 1.98206 13.0462 2.01219 12.855C2.04232 12.6637 2.1273 12.4853 2.25684 12.3414L9.94759 3.90438C10.4424 3.36352 11.1307 3.03977 11.8629 3.00342C12.5951 2.96709 13.312 3.22111 13.858 3.71031C13.9247 3.77167 13.9914 3.83636 14.0581 3.90438L21.7398 12.3394C21.8284 12.4364 21.897 12.5501 21.9414 12.6738C21.9858 12.7974 22.0053 12.9287 21.9987 13.06C21.9921 13.1912 21.9596 13.3199 21.9029 13.4385C21.8463 13.5571 21.7668 13.6633 21.6688 13.7509C21.4832 13.9172 21.2428 14.0091 20.9935 14.009H19.0469V19.0058C19.0461 19.2694 18.9936 19.5304 18.892 19.7736C18.7904 20.017 18.6417 20.2379 18.4548 20.4236C18.2678 20.6094 18.0459 20.7566 17.802 20.8565C17.5581 20.9566 17.2968 21.0075 17.0332 21.0064H15.0194C14.7558 21.0075 14.4945 20.9566 14.2505 20.8565C14.0066 20.7566 13.7848 20.6094 13.5977 20.4236C13.4107 20.2379 13.2622 20.017 13.1606 19.7736C13.059 19.5304 13.0063 19.2694 13.0057 19.0058V16.0047H10.993V19.0058C10.9923 19.2694 10.9397 19.5304 10.8381 19.7736C10.7365 20.017 10.5879 20.2379 10.4009 20.4236C10.2139 20.6094 9.99203 20.7566 9.74809 20.8565C9.50415 20.9566 9.24289 21.0075 8.97924 21.0064H6.96552C6.70186 21.0075 6.44061 20.9566 6.19666 20.8565C5.95272 20.7566 5.73088 20.6094 5.54385 20.4236C5.35683 20.2379 5.20826 20.017 5.10667 19.7736C5.00507 19.5304 4.95245 19.2694 4.9518 19.0058V14.011Z" />
    </symbol>
    <symbol id="info-outline" viewBox="0 0 24 24" xmlns="http://www.w3.org/2000/svg">
        <path d="M12 20.5C13.6811 20.5 15.3245 20.0014 16.7223 19.0675C18.1202 18.1335 19.2096 16.806 19.8529 15.2529C20.4963 13.6996 20.6646 11.9906 20.3367 10.3417C20.0086 8.69289 19.1991 7.17833 18.0104 5.98958C16.8216 4.80085 15.3071 3.9913 13.6582 3.66333C12.0094 3.33535 10.3004 3.50368 8.74718 4.14703C7.19401 4.79037 5.8665 5.87983 4.93251 7.27765C3.99852 8.67546 3.50001 10.3188 3.50001 12C3.50001 14.2543 4.39554 16.4163 5.98958 18.0105C7.58365 19.6045 9.74565 20.5 12 20.5ZM12 22C10.0222 22 8.08879 21.4135 6.44429 20.3146C4.7998 19.2159 3.51808 17.6541 2.76122 15.8268C2.00433 13.9996 1.8063 11.9889 2.19215 10.0491C2.57801 8.10928 3.53041 6.32746 4.92894 4.92894C6.32746 3.53041 8.10928 2.57801 10.0491 2.19215C11.9889 1.8063 13.9996 2.00433 15.8268 2.76122C17.6541 3.51808 19.2159 4.7998 20.3146 6.44429C21.4135 8.08879 21.9999 10.0222 21.9999 12C21.9999 14.6521 20.9464 17.1957 19.071 19.0711C17.1957 20.9464 14.6521 22 12 22ZM11 11C11 10.7348 11.1053 10.4804 11.2929 10.2929C11.4804 10.1054 11.7348 9.99999 12 9.99999C12.2652 9.99999 12.5196 10.1054 12.7071 10.2929C12.8946 10.4804 13 10.7348 13 11V16C13 16.2652 12.8946 16.5196 12.7071 16.7071C12.5196 16.8946 12.2652 16.9999 12 16.9999C11.7348 16.9999 11.4804 16.8946 11.2929 16.7071C11.1053 16.5196 11 16.2652 11 16V11ZM12 8.99999C11.8022 8.99999 11.6089 8.94134 11.4444 8.83146C11.28 8.72159 11.1518 8.56541 11.0761 8.38268C11.0004 8.19995 10.9806 7.99889 11.0192 7.80491C11.0578 7.61093 11.153 7.43275 11.2929 7.29289C11.4327 7.15304 11.6109 7.05779 11.8049 7.01921C11.9989 6.98063 12.1999 7.00043 12.3827 7.07612C12.5654 7.15181 12.7216 7.27997 12.8315 7.44443C12.9413 7.60888 13 7.80221 13 8C13 8.26522 12.8946 8.51957 12.7071 8.7071C12.5196 8.89464 12.2652 8.99999 12 8.99999Z" />
    </symbol>
    <symbol id="linkedin-fill" viewBox="0 0 24 24" xmlns="http://www.w3.org/2000/svg">
        <path d="M6.20951 9.9806H8.70029V17.9767H6.20951V9.9806ZM7.44326 6C8.23472 6 8.88652 6.64015 8.88652 7.44326C8.88652 8.23472 8.24636 8.88652 7.44326 8.88652C6.65179 8.88652 6 8.24636 6 7.44326C6 6.65179 6.65179 6 7.44326 6Z" />
        <path d="M10.2483 9.98061H12.6343V11.0747H12.6692C13.0068 10.4462 13.8099 9.78275 15.0204 9.78275C17.5344 9.78275 18 11.4355 18 13.5888V17.9767H15.5208V14.0892C15.5208 13.1581 15.5092 11.9709 14.2289 11.9709C12.9369 11.9709 12.7391 12.9835 12.7391 14.0194V17.9767H10.2483V9.98061Z" />
    </symbol>
    <symbol id="location-outline" viewBox="0 0 24 24" xmlns="http://www.w3.org/2000/svg">
        <path d="M5.50781 9.5998C5.6128 11.8185 6.71967 14.3232 8.77242 17.0299C9.484 17.9652 10.2516 18.8564 11.0711 19.6985C11.2411 19.8736 11.4071 20.0405 11.5711 20.1986C11.7301 20.0456 11.894 19.8836 12.062 19.7126C12.8814 18.8844 13.6494 18.0069 14.3617 17.0849C16.4425 14.3852 17.5483 11.8855 17.6263 9.67279C17.6263 9.5728 17.6263 9.46481 17.6263 9.34583C17.5963 7.76682 16.9409 6.26429 15.8037 5.16828C14.6667 4.07227 13.1411 3.47244 11.5621 3.50054C9.98243 3.47406 8.45683 4.0756 7.32037 5.17308C6.1839 6.27054 5.52947 7.77422 5.50081 9.35383C5.50148 9.43516 5.50381 9.51714 5.50781 9.5998ZM4 9.36184C4.01303 8.38191 4.219 7.41417 4.60612 6.51386C4.99324 5.61356 5.55393 4.79834 6.25616 4.11476C6.95839 3.43119 7.78842 2.89267 8.69883 2.52993C9.60923 2.16719 10.5822 1.98738 11.5621 2.00072C13.5386 1.9732 15.4453 2.73148 16.8629 4.10893C18.2807 5.48638 19.0937 7.37033 19.1231 9.34684C19.1231 9.47282 19.1231 9.59914 19.1231 9.72578C19.0242 12.3995 17.6934 15.2072 15.5437 17.9988C14.7948 18.9698 13.9874 19.894 13.1259 20.7664C12.8369 21.0595 12.568 21.3204 12.326 21.5454C12.179 21.6823 12.073 21.7783 12.013 21.8293C11.8876 21.9393 11.7264 22 11.5596 22C11.3927 22 11.2316 21.9393 11.1061 21.8293C11.0471 21.7764 10.9402 21.6793 10.7942 21.5403C10.5522 21.3114 10.2842 21.0464 9.99427 20.7484C9.13222 19.8607 8.32483 18.9213 7.57656 17.9358C5.46282 15.1431 4.13698 12.3435 4.00999 9.6708C4.00466 9.56747 4.00133 9.46448 4 9.36184ZM9.79929 9.35383C9.81006 9.81114 10.0016 10.2455 10.332 10.5619C10.6624 10.8782 11.1047 11.0508 11.5621 11.0416C12.0199 11.0516 12.463 10.8794 12.7941 10.563C13.1251 10.2465 13.3171 9.81168 13.3279 9.35383C13.3169 8.89617 13.1248 8.46157 12.7937 8.14535C12.4627 7.82912 12.0198 7.65711 11.5621 7.66704C11.1044 7.65711 10.6615 7.82912 10.3304 8.14535C9.9994 8.46157 9.80731 8.89617 9.79629 9.35383H9.79929ZM8.29947 9.35383C8.31028 8.49885 8.65992 7.68309 9.27161 7.08564C9.88331 6.4882 10.7071 6.15788 11.5621 6.16722C12.4178 6.15708 13.2425 6.48718 13.8548 7.08493C14.4672 7.68267 14.8171 8.49914 14.8277 9.35483C14.8169 10.2103 14.4668 11.0266 13.8545 11.6241C13.2421 12.2216 12.4176 12.5516 11.5621 12.5415C10.7064 12.5516 9.8817 12.2215 9.26933 11.6237C8.65695 11.026 8.30701 10.2095 8.29647 9.35383H8.29947Z" />
    </symbol>
    <symbol id="mail-fill" viewBox="0 0 24 24" xmlns="http://www.w3.org/2000/svg">
        <path d="M18.4 6C18.8244 6 19.2314 6.16856 19.5314 6.46863C19.8315 6.76869 20 7.17566 20 7.6V17.2C20 17.6243 19.8315 18.0314 19.5314 18.3314C19.2314 18.6315 18.8244 18.8001 18.4 18.8001H5.60001C5.17566 18.8001 4.7687 18.6315 4.46864 18.3314C4.16858 18.0314 4 17.6243 4 17.2V7.6C4 7.17566 4.16858 6.76869 4.46864 6.46863C4.7687 6.16856 5.17566 6 5.60001 6H18.4ZM14.5792 13.372C14.5231 13.4273 14.4782 13.4931 14.4475 13.5656C14.4166 13.6382 14.4004 13.7161 14.3998 13.7949C14.3991 13.8738 14.414 13.9519 14.4435 14.025C14.473 14.0981 14.5167 14.1646 14.572 14.2208L16.5721 16.2544C16.627 16.312 16.6928 16.3581 16.7657 16.39C16.8386 16.4218 16.9172 16.4388 16.9967 16.4402C17.0763 16.4414 17.1553 16.4268 17.2292 16.3972C17.303 16.3677 17.3703 16.3236 17.427 16.2678C17.4837 16.212 17.5287 16.1456 17.5596 16.0721C17.5903 15.9988 17.6061 15.92 17.6061 15.8404C17.6061 15.7608 17.5904 15.682 17.5597 15.6087C17.529 15.5352 17.484 15.4686 17.4272 15.4128L15.4273 13.3792C15.3157 13.2659 15.1637 13.2015 15.0047 13.2001C14.8457 13.1988 14.6927 13.2606 14.5792 13.372ZM8.64002 13.3208L8.57282 13.3792L6.57281 15.3792C6.46309 15.4863 6.39851 15.6312 6.39232 15.7845C6.38612 15.9376 6.43879 16.0874 6.53951 16.2029C6.64024 16.3185 6.78137 16.3911 6.93394 16.4058C7.08652 16.4207 7.23898 16.3764 7.36001 16.2825L7.42721 16.224L9.42722 14.224C9.53694 14.117 9.60152 13.972 9.60771 13.8188C9.61391 13.6656 9.56124 13.5159 9.46052 13.4004C9.35981 13.2848 9.21867 13.2122 9.06609 13.1974C8.91351 13.1826 8.76106 13.2267 8.64002 13.3208ZM16.6864 8.48881L16.6144 8.5408L12 12.4168L7.38562 8.5408C7.2696 8.44378 7.12125 8.39415 6.97021 8.40184C6.81918 8.40952 6.67662 8.47396 6.57106 8.58225C6.46549 8.69054 6.40472 8.83471 6.4009 8.98589C6.39707 9.13706 6.45047 9.28411 6.55042 9.39761L6.61441 9.46001L11.6144 13.66C11.71 13.7402 11.8281 13.7885 11.9524 13.7984C12.0767 13.8083 12.201 13.7792 12.308 13.7152L12.388 13.66L17.3881 9.46001C17.505 9.36288 17.5807 9.22499 17.5999 9.07419C17.6191 8.9234 17.5803 8.77095 17.4914 8.64764C17.4026 8.52432 17.2701 8.43933 17.1211 8.40985C16.9719 8.38038 16.8171 8.40859 16.688 8.48881H16.6864Z" />
    </symbol>
    <symbol id="mail-outline" viewBox="0 0 24 24" xmlns="http://www.w3.org/2000/svg">
        <path d="M5.60001 7.2C5.49392 7.2 5.39218 7.24215 5.31716 7.31716C5.24215 7.39217 5.2 7.49391 5.2 7.6V17.2C5.2 17.3061 5.24215 17.4079 5.31716 17.4829C5.39218 17.5579 5.49392 17.6 5.60001 17.6H18.4C18.5061 17.6 18.6079 17.5579 18.6829 17.4829C18.7579 17.4079 18.8 17.3061 18.8 17.2V7.6C18.8 7.49391 18.7579 7.39217 18.6829 7.31716C18.6079 7.24215 18.5061 7.2 18.4 7.2H5.60001ZM5.60001 6H18.4C18.8244 6 19.2314 6.16856 19.5314 6.46863C19.8315 6.76869 20 7.17566 20 7.6V17.2C20 17.6244 19.8315 18.0313 19.5314 18.3314C19.2314 18.6314 18.8244 18.8 18.4 18.8H5.60001C5.17566 18.8 4.7687 18.6314 4.46864 18.3314C4.16858 18.0313 4 17.6244 4 17.2V7.6C4 7.17566 4.16858 6.76869 4.46864 6.46863C4.7687 6.16856 5.17566 6 5.60001 6ZM16.6144 8.5408C16.7363 8.43843 16.8939 8.38867 17.0524 8.40248C17.2111 8.41628 17.3577 8.49252 17.4601 8.6144C17.5624 8.7363 17.6122 8.89387 17.5984 9.05245C17.5846 9.21103 17.5083 9.35764 17.3864 9.46001L12.3864 13.66C12.2783 13.7509 12.1416 13.8007 12.0004 13.8007C11.8592 13.8007 11.7225 13.7509 11.6144 13.66L6.61441 9.46001C6.55405 9.40932 6.50428 9.34723 6.46792 9.27731C6.43156 9.20738 6.40932 9.13097 6.40248 9.05245C6.38868 8.89387 6.43844 8.7363 6.54082 8.6144C6.64319 8.49252 6.78979 8.41628 6.94837 8.40248C7.02689 8.39564 7.10599 8.40434 7.18115 8.42808C7.25631 8.45181 7.32606 8.49012 7.38641 8.5408L12 12.4168L16.6144 8.5408ZM7.42402 16.2241C7.31027 16.33 7.15984 16.3878 7.00439 16.385C6.84895 16.3822 6.70064 16.3192 6.59071 16.2093C6.48078 16.0994 6.41782 15.9511 6.41507 15.7957C6.41233 15.6402 6.47003 15.4898 6.57601 15.376L8.57602 13.376C8.68857 13.2635 8.84124 13.2002 9.00042 13.2002C9.1596 13.2002 9.31226 13.2635 9.42482 13.376C9.53738 13.4886 9.60061 13.6412 9.60061 13.8004C9.60061 13.9596 9.53738 14.1123 9.42482 14.2248L7.42402 16.2241ZM16.5721 16.2536L14.572 14.22C14.4633 14.106 14.4038 13.9539 14.4062 13.7964C14.4087 13.6389 14.473 13.4887 14.5852 13.3782C14.6975 13.2677 14.8487 13.2058 15.0063 13.2058C15.1639 13.2059 15.3151 13.2679 15.4273 13.3784L17.4272 15.412C17.484 15.4678 17.529 15.5344 17.5597 15.6079C17.5904 15.6812 17.6061 15.76 17.6061 15.8396C17.6061 15.9192 17.5903 15.998 17.5596 16.0713C17.5287 16.1448 17.4837 16.2112 17.427 16.267C17.3703 16.3228 17.303 16.3669 17.2292 16.3964C17.1553 16.426 17.0763 16.4406 16.9967 16.4394C16.9172 16.438 16.8386 16.421 16.7657 16.3892C16.6928 16.3573 16.627 16.3112 16.5721 16.2536Z" />
    </symbol>
    <symbol id="menu" viewBox="0 0 24 24" xmlns="http://www.w3.org/2000/svg">
        <path d="M4.68265 7.5996C4.48686 7.58247 4.30568 7.48896 4.17831 7.33928C4.05094 7.18961 3.98761 6.99581 4.00201 6.7998C3.98761 6.6038 4.05094 6.41 4.17831 6.26032C4.30568 6.11065 4.48686 6.01713 4.68265 6H19.3189C19.5145 6.01753 19.6953 6.11121 19.8223 6.26084C19.9492 6.41046 20.0125 6.60405 19.998 6.7998C20.0124 6.99581 19.9491 7.18961 19.8217 7.33928C19.6943 7.48896 19.5132 7.58247 19.3174 7.5996H4.68265ZM4.68265 18.7967C4.49267 18.766 4.31983 18.6687 4.19508 18.5221C4.07034 18.3756 4.00183 18.1894 4.00183 17.997C4.00183 17.8046 4.07034 17.6184 4.19508 17.4718C4.31983 17.3253 4.49267 17.2279 4.68265 17.1972H19.3189C19.509 17.2279 19.6818 17.3253 19.8065 17.4718C19.9313 17.6184 19.9998 17.8046 19.9998 17.997C19.9998 18.1894 19.9313 18.3756 19.8065 18.5221C19.6818 18.6687 19.509 18.766 19.3189 18.7967H4.68265ZM4.68265 13.1982C4.48686 13.1811 4.30568 13.0876 4.17831 12.9379C4.05094 12.7882 3.98761 12.5944 4.00201 12.3984C3.98761 12.2024 4.05094 12.0086 4.17831 11.8589C4.30568 11.7092 4.48686 11.6157 4.68265 11.5986H19.3189C19.5145 11.6161 19.6953 11.7098 19.8223 11.8594C19.9492 12.0091 20.0125 12.2026 19.998 12.3984C20.0124 12.5944 19.9491 12.7882 19.8217 12.9379C19.6943 13.0876 19.5132 13.1811 19.3174 13.1982H4.68265Z" />
    </symbol>
    <symbol id="question-outline" viewBox="0 0 24 24" xmlns="http://www.w3.org/2000/svg">
        <path d="M9.21799 7.32599C9.4011 7.1651 9.59488 7.01677 9.79798 6.88199C10.0131 6.73913 10.2411 6.6166 10.479 6.51599C10.735 6.40852 11.0009 6.32645 11.273 6.271C11.5778 6.20959 11.8881 6.17977 12.199 6.182C12.6174 6.17705 13.0338 6.2402 13.432 6.36899C13.7818 6.48172 14.1058 6.6629 14.385 6.902C14.6491 7.13197 14.8591 7.41743 14.9999 7.738C15.1496 8.08513 15.2239 8.46003 15.218 8.83799C15.2258 9.18672 15.1679 9.53379 15.047 9.86099C14.9429 10.1314 14.7986 10.3846 14.619 10.612C14.4542 10.8183 14.2648 11.0037 14.055 11.164L13.475 11.604C13.3091 11.7265 13.1517 11.8601 13.004 12.004C12.8787 12.1234 12.7955 12.2803 12.767 12.451L12.588 13.587H11.272L11.14 12.319C11.1048 12.0993 11.1416 11.874 11.245 11.677C11.3493 11.4873 11.4845 11.3163 11.645 11.171C11.8228 11.0105 12.0112 10.8622 12.209 10.727C12.4148 10.5858 12.61 10.4297 12.793 10.26C12.9721 10.0944 13.1254 9.90293 13.248 9.692C13.3748 9.46245 13.438 9.20316 13.431 8.94099C13.4336 8.76858 13.3978 8.59776 13.326 8.441C13.2569 8.29463 13.1574 8.16473 13.034 8.06C12.9025 7.94981 12.7506 7.86656 12.587 7.81499C12.4048 7.75652 12.2144 7.7275 12.023 7.729C11.769 7.72418 11.5158 7.7579 11.272 7.829C11.0913 7.88371 10.9168 7.95676 10.751 8.047C10.6083 8.12767 10.4877 8.20032 10.389 8.26499C10.3121 8.32317 10.2201 8.3579 10.124 8.365C10.0419 8.36897 9.96048 8.34908 9.88948 8.30774C9.81849 8.26638 9.76101 8.20534 9.72399 8.132L9.21799 7.32599ZM10.688 16.5C10.6873 16.3426 10.7175 16.1866 10.777 16.041C10.8328 15.9012 10.9161 15.774 11.022 15.667C11.246 15.4468 11.5479 15.3238 11.862 15.325C12.0211 15.3235 12.1788 15.3552 12.325 15.418C12.4638 15.4776 12.5905 15.5619 12.699 15.667C12.8093 15.7758 12.8969 15.9054 12.9567 16.0483C13.0165 16.1911 13.0473 16.3446 13.0473 16.4995C13.0473 16.6545 13.0165 16.8078 12.9567 16.9507C12.8969 17.0937 12.8093 17.2233 12.699 17.332C12.4753 17.5494 12.1749 17.6697 11.863 17.667C11.703 17.6683 11.5443 17.638 11.396 17.578C11.2565 17.5227 11.1298 17.4397 11.0234 17.334C10.917 17.2282 10.8332 17.1021 10.777 16.963C10.7167 16.8162 10.6864 16.6587 10.688 16.5ZM12 20.5C13.6811 20.5 15.3245 20.0014 16.7224 19.0675C18.1202 18.1335 19.2097 16.806 19.853 15.2529C20.4964 13.6996 20.6647 11.9906 20.3366 10.3417C20.0087 8.69289 19.1992 7.17833 18.0104 5.98958C16.8217 4.80085 15.3071 3.9913 13.6583 3.66333C12.0094 3.33535 10.3003 3.50368 8.74717 4.14703C7.19402 4.79037 5.86649 5.87983 4.9325 7.27765C3.99851 8.67546 3.5 10.3188 3.5 12C3.5 14.2543 4.39553 16.4163 5.98959 18.0105C7.58364 19.6045 9.74565 20.5 12 20.5ZM12 22C10.0222 22 8.08878 21.4135 6.44429 20.3146C4.7998 19.2159 3.51808 17.6541 2.76121 15.8268C2.00433 13.9996 1.8063 11.9889 2.19216 10.0491C2.578 8.10928 3.53041 6.32746 4.92893 4.92894C6.32745 3.53041 8.10929 2.57801 10.0491 2.19215C11.9889 1.8063 13.9995 2.00433 15.8269 2.76122C17.654 3.51808 19.2158 4.7998 20.3147 6.44429C21.4135 8.08879 22 10.0222 22 12C22 14.6521 20.9464 17.1957 19.0711 19.0711C17.1956 20.9464 14.6521 22 12 22Z"/>
    </symbol>
    <symbol id="play-outline" viewBox="0 0 24 24" xmlns="http://www.w3.org/2000/svg">
        <path d="M9.73012 15.9523C9.79487 15.9844 9.86575 16 9.9375 16C10.0215 16 10.1055 15.9789 10.1781 15.9359L16.3031 12.3262C16.4265 12.2543 16.5 12.1308 16.5 11.9995C16.5 11.8682 16.4256 11.7463 16.3031 11.6744L10.1781 8.06463C10.0434 7.98491 9.871 7.97866 9.73012 8.04743C9.58837 8.11308 9.5 8.24593 9.5 8.38973V15.6092C9.5 15.753 9.58837 15.8859 9.73012 15.9523Z" />
        <path fill-rule="evenodd" clip-rule="evenodd" d="M20.5319 12C20.5319 7.2969 16.7031 3.46805 12 3.46805C7.29612 3.46805 3.46805 7.29689 3.46805 12C3.46805 16.7031 7.29612 20.5319 12 20.5319C16.7031 20.5319 20.5319 16.7031 20.5319 12ZM2 12C2 6.47749 6.47749 2 12 2C17.5225 2 22 6.47749 22 12C22 17.5225 17.5225 22 12 22C6.47749 22 2 17.5225 2 12Z" />
    </symbol>
    <symbol id="reload" viewBox="0 0 24 24" xmlns="http://www.w3.org/2000/svg">
        <path d="M17.9512 6.27778L17.8888 6.22222C16.5247 4.85973 14.7303 4.01243 12.8114 3.8247C10.8925 3.63698 8.96786 4.12045 7.36548 5.19272C5.76311 6.26498 4.58211 7.85972 4.02376 9.70515C3.4654 11.5506 3.56423 13.5325 4.3034 15.3133C5.04258 17.094 6.37635 18.5633 8.07745 19.4708C9.77856 20.3783 11.7417 20.668 13.6324 20.2903C15.5232 19.9127 17.2243 18.891 18.4462 17.3997C19.6682 15.9082 20.335 14.0392 20.3333 12.1111C20.3333 11.8901 20.4212 11.6781 20.5773 11.5219C20.7337 11.3656 20.9457 11.2778 21.1667 11.2778C21.3877 11.2778 21.5997 11.3656 21.756 11.5219C21.9122 11.6781 22 11.8901 22 12.1111C22 14.417 21.203 16.6522 19.7442 18.4378C18.2852 20.2237 16.254 21.4503 13.9943 21.9102C11.7347 22.37 9.38561 22.0348 7.34478 20.9613C5.30395 19.888 3.69681 18.1422 2.79551 16.0197C1.89421 13.8972 1.75413 11.5284 2.399 9.31448C3.04385 7.10055 4.43403 5.17752 6.33411 3.871C8.23421 2.5645 10.5274 1.9548 12.8255 2.14515C15.1236 2.3355 17.2852 3.31422 18.9445 4.91555V1.83333C18.9445 1.61232 19.0322 1.40035 19.1885 1.24408C19.3448 1.0878 19.5568 1 19.7778 1C19.9988 1 20.2108 1.0878 20.367 1.24408C20.5233 1.40035 20.6112 1.61232 20.6112 1.83333V6.83333C20.6112 7.12802 20.494 7.41063 20.2857 7.619C20.0773 7.82738 19.7947 7.94445 19.5 7.94445H14.5C14.279 7.94445 14.067 7.85665 13.9107 7.70037C13.7545 7.54408 13.6667 7.33212 13.6667 7.11112C13.6667 6.8901 13.7545 6.67813 13.9107 6.52185C14.067 6.36558 14.279 6.27778 14.5 6.27778H17.9512Z" />
    </symbol>
    <symbol id="search" viewBox="0 0 24 24" xmlns="http://www.w3.org/2000/svg">
        <path d="M14.7174 15.9752C13.3721 17.0015 11.687 17.4784 10.0033 17.3089C8.31966 17.1395 6.76328 16.3365 5.64935 15.0627C4.53541 13.789 3.94717 12.1395 4.00373 10.4482C4.06028 8.75702 4.7574 7.15049 5.95395 5.95395C7.15049 4.7574 8.75702 4.06028 10.4482 4.00373C12.1395 3.94717 13.789 4.53541 15.0627 5.64935C16.3365 6.76328 17.1395 8.31966 17.3089 10.0033C17.4784 11.687 17.0015 13.3721 15.9752 14.7174L19.7502 18.4925C19.9123 18.6603 20.002 18.8849 20 19.1182C19.9978 19.3514 19.9043 19.5745 19.7394 19.7394C19.5745 19.9043 19.3514 19.9978 19.1182 20C18.8849 20.002 18.6603 19.9123 18.4925 19.7502L14.7174 15.9752ZM10.6712 15.5633C11.6388 15.5633 12.5846 15.2765 13.3892 14.7389C14.1937 14.2013 14.8207 13.4373 15.191 12.5434C15.5613 11.6494 15.6582 10.6658 15.4694 9.71676C15.2806 8.76775 14.8147 7.89605 14.1305 7.21185C13.4463 6.52766 12.5746 6.06172 11.6256 5.87296C10.6766 5.6842 9.69294 5.78108 8.79901 6.15135C7.90507 6.52163 7.141 7.14869 6.60345 7.95321C6.06588 8.75773 5.77895 9.70359 5.77895 10.6712C5.77895 11.9687 6.29439 13.213 7.21185 14.1305C8.12933 15.0479 9.37368 15.5633 10.6712 15.5633Z" />
    </symbol>
    <symbol id="smile-outline" viewBox="0 0 24 24" xmlns="http://www.w3.org/2000/svg">
        <path fill-rule="evenodd" clip-rule="evenodd" d="M5.89138 5.89139C7.51149 4.27128 9.70883 3.36111 12 3.36111C14.2912 3.36111 16.4885 4.27128 18.1086 5.89139C19.7287 7.5115 20.6389 9.70882 20.6389 12C20.6389 14.2912 19.7287 16.4885 18.1086 18.1086C16.4885 19.7287 14.2912 20.6389 12 20.6389C9.70883 20.6389 7.51149 19.7287 5.89138 18.1086C4.27128 16.4885 3.36111 14.2912 3.36111 12C3.36111 9.70882 4.27128 7.5115 5.89138 5.89139ZM12 1.75C9.28153 1.75 6.6744 2.82992 4.75216 4.75216C2.82991 6.67441 1.75 9.28153 1.75 12C1.75 14.7185 2.82991 17.3256 4.75216 19.2478C6.6744 21.1701 9.28153 22.25 12 22.25C14.7185 22.25 17.3256 21.1701 19.2478 19.2478C21.1701 17.3256 22.25 14.7185 22.25 12C22.25 9.28153 21.1701 6.67441 19.2478 4.75216C17.3256 2.82992 14.7185 1.75 12 1.75ZM8.87783 7.97223C8.15125 7.97223 7.55005 8.57342 7.55005 9.30001C7.55005 10.0266 8.15125 10.6278 8.87783 10.6278C9.6044 10.6278 10.2056 10.0266 10.2056 9.30001C10.2056 8.57342 9.6044 7.97223 8.87783 7.97223ZM15.1222 7.97223C14.3956 7.97223 13.7944 8.57342 13.7944 9.30001C13.7944 10.0266 14.3956 10.6278 15.1222 10.6278C15.8488 10.6278 16.45 10.0266 16.45 9.30001C16.45 8.57342 15.8488 7.97223 15.1222 7.97223ZM8.28565 14.1501C8.09927 13.7115 7.5925 13.5098 7.15548 13.6919C6.71662 13.8748 6.50616 14.3787 6.69336 14.8193C7.54082 16.8137 9.56884 18.2017 11.9201 18.2017C14.2713 18.2017 16.2993 16.8137 17.1468 14.8193C17.334 14.3787 17.1235 13.8748 16.6846 13.6919C16.2476 13.5098 15.7409 13.7115 15.5545 14.1501C14.9788 15.505 13.5801 16.4825 11.9201 16.4825C10.26 16.4825 8.86134 15.505 8.28565 14.1501Z" />
    </symbol>
    <symbol id="tag-outline" viewBox="0 0 24 24" xmlns="http://www.w3.org/2000/svg">
        <path d="M11.9921 21.6681L2.55402 12.2321C2.34759 12.0351 2.2278 11.7643 2.22102 11.4791L2.00003 3.12901C1.99806 2.82698 2.10857 2.53504 2.31003 2.31001H2.33202C2.55087 2.11208 2.83496 2.00171 3.13003 2L11.4821 2.22101C11.7671 2.22763 12.0379 2.34703 12.2351 2.55301L21.6732 11.9661C21.879 12.1792 21.9958 12.4629 21.9999 12.7592C22.0041 13.0555 21.895 13.3423 21.6951 13.5611L13.5641 21.6901C13.3561 21.8905 13.078 22.0018 12.7891 22C12.6406 22.0021 12.4933 21.9736 12.3562 21.9165C12.2192 21.8595 12.0952 21.7749 11.9921 21.6681ZM3.60004 11.324L12.7721 20.4931L20.5041 12.7631L11.3491 3.59502L3.40003 3.40002L3.60004 11.324ZM5.58905 8.73304C5.17398 8.31493 4.94105 7.74968 4.94105 7.16054C4.94105 6.57138 5.17398 6.00613 5.58905 5.58802C5.89952 5.28002 6.29423 5.07083 6.72342 4.98679C7.1526 4.90276 7.59705 4.94767 8.00075 5.11583C8.40446 5.284 8.74935 5.5679 8.99195 5.93178C9.23456 6.29565 9.36403 6.72319 9.36403 7.16054C9.36403 7.59786 9.23456 8.02541 8.99195 8.38928C8.74935 8.75315 8.40446 9.03706 8.00075 9.20523C7.59705 9.37341 7.1526 9.4183 6.72342 9.33427C6.29423 9.25024 5.89952 9.04104 5.58905 8.73304ZM6.56405 6.56203C6.42221 6.70074 6.33296 6.8844 6.31154 7.08162C6.29012 7.27886 6.33788 7.4774 6.44665 7.64331C6.5554 7.80923 6.71842 7.93222 6.90781 7.99126C7.09722 8.0503 7.30123 8.0417 7.48501 7.96697C7.66878 7.89224 7.8209 7.75599 7.91534 7.58153C8.00978 7.40706 8.04068 7.20522 8.00279 7.01049C7.96488 6.81574 7.86051 6.64023 7.70752 6.51393C7.55454 6.38763 7.36243 6.31837 7.16406 6.31803C6.93981 6.31764 6.72437 6.40524 6.56405 6.56203Z" />
    </symbol>
    <symbol id="ticket-outline" viewBox="0 0 24 24" xmlns="http://www.w3.org/2000/svg">
        <path fill-rule="evenodd" clip-rule="evenodd" d="M1 15.7678V19.643L23 19.643V15.7678H22.357C21.276 15.7678 20.4107 14.9025 20.4107 13.8215C20.4107 12.7405 21.276 11.8752 22.357 11.8752H23L23 8L1 8V11.8752L1.64299 11.8752C2.724 11.8752 3.58925 12.7405 3.58925 13.8215C3.58925 14.9025 2.724 15.7678 1.64299 15.7678H1ZM1.12514 8.12514V8.12514L22.357 8.12514L1.64299 8.12514L1.12514 8.12514ZM21.714 18.357L8.98345 18.357L8.98345 9.28598L21.714 9.28598V10.7162C20.2539 11.0207 19.1248 12.2656 19.1248 13.8215C19.1248 15.3772 20.2542 16.622 21.714 16.9267V18.357ZM7.69747 18.357H2.28598L2.28598 16.9267C3.74575 16.622 4.87523 15.3772 4.87523 13.8215C4.87523 12.2656 3.74609 11.0207 2.28598 10.7162L2.28598 9.28598L7.69747 9.28598L7.69747 18.357ZM2.16084 9.16084L2.16084 9.16084L2.16084 10.8196M2.16084 10.8196L2.16084 9.16084L2.16084 10.8196Z" />
    </symbol>
    <symbol id="trash-outline" viewBox="0 0 24 24" xmlns="http://www.w3.org/2000/svg">
        <path d="M7 6V4.00001C7 3.46956 7.21071 2.96087 7.58578 2.58579C7.96086 2.21072 8.46957 2 9 2H15C15.5304 2 16.0392 2.21072 16.4142 2.58579C16.7893 2.96087 16.9999 3.46956 16.9999 4.00001V6H20.25C20.4489 6 20.6397 6.07902 20.7804 6.21968C20.9209 6.36032 21 6.55109 21 6.75C21 6.94892 20.9209 7.13967 20.7804 7.28033C20.6397 7.42098 20.4489 7.5 20.25 7.5H19V20C19 20.5304 18.7893 21.0392 18.4142 21.4142C18.0392 21.7893 17.5305 21.9999 16.9999 21.9999H7C6.46956 21.9999 5.96087 21.7893 5.58579 21.4142C5.21072 21.0392 4.99999 20.5304 4.99999 20V7.5H3.75C3.55108 7.5 3.36032 7.42098 3.21968 7.28033C3.07902 7.13967 3 6.94892 3 6.75C3 6.55109 3.07902 6.36032 3.21968 6.21968C3.36032 6.07902 3.55108 6 3.75 6H7ZM8.5 6H15.4999V4.00001C15.4999 3.86739 15.4473 3.74022 15.3535 3.64644C15.2598 3.55268 15.1326 3.5 15 3.5H9C8.86738 3.5 8.74021 3.55268 8.64645 3.64644C8.55268 3.74022 8.5 3.86739 8.5 4.00001V6ZM6.5 7.5V20C6.5 20.1326 6.55268 20.2598 6.64644 20.3535C6.74022 20.4473 6.86739 20.4999 7 20.4999H16.9999C17.1325 20.4999 17.2598 20.4473 17.3535 20.3535C17.4473 20.2598 17.5001 20.1326 17.5001 20V7.5H6.5ZM8.5 10.75C8.5 10.5511 8.57902 10.3603 8.71966 10.2197C8.86032 10.079 9.05109 10 9.25 10C9.4489 10 9.63967 10.079 9.78033 10.2197C9.92098 10.3603 10 10.5511 10 10.75V17.25C10 17.4489 9.92098 17.6397 9.78033 17.7803C9.63967 17.921 9.4489 18 9.25 18C9.05109 18 8.86032 17.921 8.71966 17.7803C8.57902 17.6397 8.5 17.4489 8.5 17.25V10.75ZM11.25 10.75C11.25 10.5511 11.329 10.3603 11.4697 10.2197C11.6103 10.079 11.8011 10 12 10C12.1989 10 12.3897 10.079 12.5303 10.2197C12.671 10.3603 12.75 10.5511 12.75 10.75V17.25C12.75 17.4489 12.671 17.6397 12.5303 17.7803C12.3897 17.921 12.1989 18 12 18C11.8011 18 11.6103 17.921 11.4697 17.7803C11.329 17.6397 11.25 17.4489 11.25 17.25V10.75ZM14 10.75C14 10.5511 14.079 10.3603 14.2197 10.2197C14.3603 10.079 14.5511 10 14.75 10C14.9489 10 15.1397 10.079 15.2803 10.2197C15.4211 10.3603 15.4999 10.5511 15.4999 10.75V17.25C15.4999 17.4489 15.4211 17.6397 15.2803 17.7803C15.1397 17.921 14.9489 18 14.75 18C14.5511 18 14.3603 17.921 14.2197 17.7803C14.079 17.6397 14 17.4489 14 17.25V10.75Z" />
    </symbol>
    <symbol id="twitter-fill" viewBox="0 0 24 24" xmlns="http://www.w3.org/2000/svg">
        <path d="M19.4 7.41785C18.8677 7.66154 18.2995 7.824 17.7025 7.89785C18.3139 7.52123 18.7814 6.93046 18.9972 6.22154C18.429 6.56862 17.796 6.81969 17.1199 6.96C16.5804 6.36923 15.818 6 14.962 6C13.3293 6 12.013 7.35877 12.013 9.02769C12.013 9.264 12.0418 9.49292 12.0921 9.72185C9.63936 9.59631 7.46713 8.39262 6.00699 6.55385C5.75524 7.00431 5.6042 7.52123 5.6042 8.07508C5.6042 9.12369 6.12208 10.0542 6.92048 10.6006C6.43856 10.5858 5.97822 10.4455 5.58262 10.224C5.58262 10.2388 5.58262 10.2462 5.58262 10.2609C5.58262 11.7305 6.5968 12.9563 7.94905 13.2295C7.7045 13.296 7.43836 13.3329 7.17223 13.3329C6.98521 13.3329 6.7982 13.3108 6.61838 13.2812C6.99241 14.4849 8.08571 15.3637 9.37323 15.3858C8.36623 16.1982 7.09311 16.6855 5.7049 16.6855C5.46753 16.6855 5.23017 16.6708 5 16.6412C6.30909 17.4978 7.85554 18 9.52428 18C14.9548 18 17.9183 13.3846 17.9183 9.38215C17.9183 9.24923 17.9183 9.12369 17.9111 8.99077C18.5009 8.56246 19.0044 8.03077 19.4 7.41785Z" />
    </symbol>
    <symbol id="user-fill" viewBox="0 0 24 24" xmlns="http://www.w3.org/2000/svg">
        <path d="M12.0215 13.3607C14.0135 13.3607 15.6284 11.7458 15.6284 9.75376C15.6284 7.76172 14.0135 6.14685 12.0215 6.14685C10.0294 6.14685 8.41455 7.76172 8.41455 9.75376C8.41455 11.7458 10.0294 13.3607 12.0215 13.3607Z" />
        <path d="M12 2C6.49244 2 2 6.47084 2 12C2 17.5292 6.49244 22 12 22C17.5076 22 22 17.5076 22 12C22 6.49244 17.5076 2 12 2ZM17.8747 18.3067C17.1404 16.3412 15.5421 14.2462 12 14.2462C8.47948 14.2462 6.85961 16.3412 6.12527 18.3067C4.4406 16.73 3.36069 14.4838 3.36069 12C3.36069 7.24838 7.22678 3.36069 12 3.36069C16.7732 3.36069 20.6393 7.22678 20.6393 12C20.6393 14.4838 19.5594 16.73 17.8747 18.3067Z" />
    </symbol>
</svg>
