<svg viewBox="0 0 16 16" xmlns="http://www.w3.org/2000/svg" xmlns:xlink="http://www.w3.org/1999/xlink">
    <path d="M7.99439 14.4454L1.70236 8.15469C1.56474 8.0234 1.48488 7.84283 1.48036 7.65269L1.33302 2.08599C1.33171 1.88464 1.40539 1.69 1.5397 1.53998H1.55436C1.70026 1.40803 1.88965 1.33445 2.08636 1.33331L7.65439 1.48065C7.84443 1.48506 8.02496 1.56466 8.15639 1.70198L14.4485 7.97735C14.5857 8.11948 14.6636 8.30857 14.6663 8.50612C14.6691 8.70366 14.5964 8.89483 14.4631 9.04069L9.04239 14.4601C8.90374 14.5937 8.71832 14.6679 8.52573 14.6667C8.42675 14.6681 8.32854 14.6491 8.23717 14.611C8.14579 14.573 8.06317 14.5166 7.99439 14.4454ZM2.3997 7.54935L8.51439 13.6621L13.6691 8.50869L7.56573 2.39666L2.26636 2.26666L2.3997 7.54935ZM3.72571 5.82201C3.449 5.54326 3.2937 5.16643 3.2937 4.77367C3.2937 4.3809 3.449 4.00407 3.72571 3.72533C3.93269 3.51999 4.19583 3.38053 4.48195 3.3245C4.76807 3.26848 5.06437 3.29842 5.33351 3.41053C5.60265 3.52264 5.83258 3.71192 5.99431 3.9545C6.15605 4.19708 6.24236 4.48211 6.24236 4.77367C6.24236 5.06522 6.15605 5.35025 5.99431 5.59283C5.83258 5.83542 5.60265 6.02469 5.33351 6.1368C5.06437 6.24892 4.76807 6.27885 4.48195 6.22283C4.19583 6.16681 3.93269 6.02734 3.72571 5.82201ZM4.37571 4.37467C4.28115 4.46714 4.22165 4.58958 4.20737 4.72106C4.19309 4.85255 4.22493 4.98491 4.29744 5.09552C4.36994 5.20613 4.47862 5.28812 4.60488 5.32748C4.73115 5.36684 4.86716 5.36111 4.98968 5.31129C5.11219 5.26147 5.21361 5.17064 5.27657 5.05433C5.33953 4.93802 5.36013 4.80346 5.33487 4.67364C5.30959 4.54381 5.24002 4.4268 5.13802 4.3426C5.03603 4.2584 4.90796 4.21223 4.77571 4.212C4.62621 4.21174 4.48259 4.27014 4.37571 4.37467Z" fill="#39A0CA" />
</svg>
