<svg width="24" height="24" viewBox="0 0 24 24" fill="none" xmlns="http://www.w3.org/2000/svg">
    <path fill-rule="evenodd" clip-rule="evenodd" d="M1 15.7678V19.643L23 19.643V15.7678H22.357C21.276 15.7678 20.4107 14.9025 20.4107 13.8215C20.4107 12.7405 21.276 11.8752 22.357 11.8752H23L23 8L1 8V11.8752L1.64299 11.8752C2.724 11.8752 3.58925 12.7405 3.58925 13.8215C3.58925 14.9025 2.724 15.7678 1.64299 15.7678H1ZM1.12514 8.12514V8.12514L22.357 8.12514L1.64299 8.12514L1.12514 8.12514ZM21.714 18.357L8.98345 18.357L8.98345 9.28598L21.714 9.28598V10.7162C20.2539 11.0207 19.1248 12.2656 19.1248 13.8215C19.1248 15.3772 20.2542 16.622 21.714 16.9267V18.357ZM7.69747 18.357H2.28598L2.28598 16.9267C3.74575 16.622 4.87523 15.3772 4.87523 13.8215C4.87523 12.2656 3.74609 11.0207 2.28598 10.7162L2.28598 9.28598L7.69747 9.28598L7.69747 18.357ZM2.16084 9.16084L2.16084 9.16084L2.16084 10.8196M2.16084 10.8196L2.16084 9.16084L2.16084 10.8196Z" fill="#1C2B44"/>
</svg>
