<svg width="24" height="24" viewBox="0 0 24 24" fill="none" xmlns="http://www.w3.org/2000/svg">
    <path d="M10.7608 12L5.24601 6.48515C5.08637 6.31987 4.99804 6.09851 5.00003 5.86873C5.00203 5.63895 5.09419 5.41915 5.25668 5.25668C5.41915 5.09419 5.63895 5.00203 5.86873 5.00003C6.09851 4.99804 6.31987 5.08637 6.48515 5.24601L12 10.7608L17.5148 5.24601C17.6801 5.08637 17.9014 4.99804 18.1312 5.00003C18.361 5.00203 18.5808 5.09419 18.7432 5.25668C18.9057 5.41915 18.998 5.63895 19 5.86873C19.0019 6.09851 18.9136 6.31987 18.754 6.48515L13.2391 12L18.754 17.5148C18.9136 17.6802 19.0019 17.9015 19 18.1313C18.998 18.3611 18.9057 18.5809 18.7432 18.7433C18.5808 18.9058 18.361 18.998 18.1312 18.9999C17.9014 19.0019 17.6801 18.9136 17.5148 18.754L12 13.2391L6.48515 18.754C6.31987 18.9136 6.09851 19.0019 5.86873 18.9999C5.63895 18.998 5.41915 18.9058 5.25668 18.7433C5.09419 18.5809 5.00203 18.3611 5.00003 18.1313C4.99804 17.9015 5.08637 17.6802 5.24601 17.5148L10.7608 12Z" />
</svg>
